<svg xmlns="http://www.w3.org/2000/svg" width="24.176" height="24.176" viewBox="0 0 24.176 24.176">
  <g id="Group_346" data-name="Group 346" opacity="0.3">
    <g id="Group_98" data-name="Group 98" transform="translate(0)">
      <path id="Path_329" data-name="Path 329" d="M642.449,459.456a.844.844,0,0,1-.6-.248l-11.242-11.242a.846.846,0,0,1,0-1.2l11.242-11.242a.846.846,0,0,1,1.2,0L654.29,446.77a.846.846,0,0,1,0,1.2l-11.242,11.242A.844.844,0,0,1,642.449,459.456ZM632.4,447.368l10.045,10.046,10.046-10.046-10.046-10.046Z" transform="translate(-630.361 -435.28)" fill="#dc3409"/>
    </g>
    <g id="Group_99" data-name="Group 99" transform="translate(11.242 0.12)">
      <path id="Path_330" data-name="Path 330" d="M764.079,460.633a.846.846,0,0,1-.846-.846V437.543a.846.846,0,0,1,1.692,0v22.244A.846.846,0,0,1,764.079,460.633Z" transform="translate(-763.233 -436.697)" fill="#dc3409"/>
    </g>
    <g id="Group_100" data-name="Group 100" transform="translate(0.12 6.999)">
      <path id="Path_331" data-name="Path 331" d="M632.623,523.935a.846.846,0,0,1-.3-1.637l11.122-4.243a.845.845,0,0,1,.6,0l11.122,4.243a.846.846,0,0,1-.6,1.581l-10.821-4.128-10.82,4.128A.845.845,0,0,1,632.623,523.935Z" transform="translate(-631.776 -517.999)" fill="#dc3409"/>
    </g>
    <g id="Group_101" data-name="Group 101" transform="translate(0.12 11.229)">
      <path id="Path_332" data-name="Path 332" d="M643.745,573.932a.843.843,0,0,1-.3-.056l-11.122-4.243a.846.846,0,1,1,.6-1.581l10.82,4.128,10.821-4.128a.846.846,0,0,1,.6,1.581l-11.122,4.243A.844.844,0,0,1,643.745,573.932Z" transform="translate(-631.776 -567.996)" fill="#dc3409"/>
    </g>
  </g>
</svg>
