<svg xmlns="http://www.w3.org/2000/svg" width="26.235" height="34.98" viewBox="0 0 26.235 34.98">
  <g id="Group_222" data-name="Group 222" opacity="0.3">
    <g id="hourglass" transform="translate(0 0)">
      <path id="Path_27" data-name="Path 27" d="M184.777,160.066h-1.458V155.3a8.392,8.392,0,0,0-2.774-6.231l-2.468-2.219a1.821,1.821,0,0,1,0-2.709l2.468-2.221a8.388,8.388,0,0,0,2.774-6.231v-4.77h1.458a1.457,1.457,0,1,0,0-2.914H161.458a1.458,1.458,0,0,0,0,2.916h1.458v4.771a8.391,8.391,0,0,0,2.774,6.23l2.468,2.219a1.821,1.821,0,0,1,0,2.709l-2.468,2.221a8.388,8.388,0,0,0-2.774,6.231v4.77h-1.458a1.456,1.456,0,1,0,0,2.912h23.321a1.457,1.457,0,0,0,0-2.914Zm0,0" transform="translate(-160 -128)" fill="#e9e9e9"/>
      <path id="Path_28" data-name="Path 28" d="M213.328,284.361a3.989,3.989,0,0,1,1.174-2.836l3.883-3.883a1.094,1.094,0,0,1,1.546,0l3.883,3.883a3.985,3.985,0,0,1,1.174,2.836v4.622H213.328Zm0,0" transform="translate(-206.041 -256.92)" fill="#e9e9e9"/>
    </g>
    <path id="Path_487" data-name="Path 487" d="M213.328,286.122a4.987,4.987,0,0,1,1.468-3.545l4.854-4.854a1.367,1.367,0,0,1,1.932,0l4.854,4.854a4.982,4.982,0,0,1,1.468,3.545V291.9H213.328Zm0,0" transform="translate(-207.296 -259.332)" fill="#158a50"/>
    <rect id="Rectangle_214" data-name="Rectangle 214" width="4.826" height="24.128" transform="translate(10.858 4.826)" fill="#158a50"/>
    <path id="Path_488" data-name="Path 488" d="M227.9,283.1a4.987,4.987,0,0,1-1.468,3.545l-4.854,4.854a1.367,1.367,0,0,1-1.932,0l-4.854-4.854a4.982,4.982,0,0,1-1.468-3.545v-5.778H227.9Zm0,0" transform="translate(-207.296 -273.809)" fill="#158a50"/>
  </g>
</svg>
