<svg id="instagram-logo" xmlns="http://www.w3.org/2000/svg" width="35.597" height="35.597" viewBox="0 0 35.597 35.597">
  <path id="Path_63" data-name="Path 63" d="M25.774,0H9.823A9.835,9.835,0,0,0,0,9.824v15.95A9.835,9.835,0,0,0,9.823,35.6h15.95A9.835,9.835,0,0,0,35.6,25.774V9.824A9.835,9.835,0,0,0,25.774,0Zm6.666,25.774a6.673,6.673,0,0,1-6.665,6.665H9.823a6.672,6.672,0,0,1-6.665-6.665V9.824A6.673,6.673,0,0,1,9.823,3.158h15.95a6.673,6.673,0,0,1,6.665,6.665v15.95Z" fill="#a7a7a7"/>
  <path id="Path_64" data-name="Path 64" d="M50.141,40.97a9.172,9.172,0,1,0,9.173,9.173A9.183,9.183,0,0,0,50.141,40.97Zm0,15.186a6.014,6.014,0,1,1,6.014-6.014A6.021,6.021,0,0,1,50.141,56.156Z" transform="translate(-32.342 -32.343)" fill="#a7a7a7"/>
  <path id="Path_65" data-name="Path 65" d="M121.237,28.251a2.315,2.315,0,1,0,1.638.678A2.325,2.325,0,0,0,121.237,28.251Z" transform="translate(-93.881 -22.303)" fill="#a7a7a7"/>
</svg>
