<svg id="_004-atom" data-name="004-atom" xmlns="http://www.w3.org/2000/svg" width="39.064" height="47" viewBox="0 0 39.064 47">
  <path id="Path_266" data-name="Path 266" d="M218.591,223.463a4.113,4.113,0,1,0-4.1-4.113A4.113,4.113,0,0,0,218.591,223.463Zm0-6.843a2.73,2.73,0,1,1-2.717,2.73,2.73,2.73,0,0,1,2.717-2.73Z" transform="translate(-199.056 -195.883)" fill="#116a9a"/>
  <path id="Path_267" data-name="Path 267" d="M58.948,56.783a4.106,4.106,0,0,0,2.834,1.531,7.973,7.973,0,0,0,1.2.084,22.15,22.15,0,0,0,8.1-2.049c.257,1.023.541,1.994.855,2.9,1.579,4.574,3.735,7.09,6.075,7.09h.034c2.353-.025,4.47-2.587,5.961-7.216.272-.844.518-1.741.74-2.682A21.793,21.793,0,0,0,92.618,58.4a8.013,8.013,0,0,0,1.2-.084,4.107,4.107,0,0,0,2.834-1.531c1.035-1.41.871-3.545-.426-6.2.1-.094.249-.2.249-.309h0a2.367,2.367,0,0,0-.48-3.323,2.335,2.335,0,0,0-2.209-.319,40.469,40.469,0,0,0-3.313-3.821,40.1,40.1,0,0,0,4.02-4.8c2.786-3.979,3.553-7.217,2.158-9.116a4.105,4.105,0,0,0-2.833-1.531c-2.277-.344-5.546.382-9.256,1.947q-.222-.886-.474-1.715a2.378,2.378,0,0,0-1.351-4.347h0a2.375,2.375,0,0,0-.405.04c-1.374-2.589-3.006-3.953-4.739-3.953h-.035c-2.354.025-4.47,2.587-5.961,7.216-.272.844-.518,1.74-.739,2.681-3.634-1.512-6.833-2.209-9.072-1.87A4.107,4.107,0,0,0,58.948,28.9c-1.395,1.9-.629,5.137,2.157,9.116a40.075,40.075,0,0,0,4.019,4.8,40.513,40.513,0,0,0-3.316,3.821,2.393,2.393,0,0,0-.463-.119,2.351,2.351,0,0,0-1.762.438,2.385,2.385,0,0,0-.5,3.323h0a2.4,2.4,0,0,0,.272.308C58.055,53.237,57.912,55.373,58.948,56.783Zm11.44-1.634c-3.473,1.453-6.455,2.092-8.4,1.8a2.793,2.793,0,0,1-1.926-.982c-.7-.954-.513-2.632.524-4.755l.049.01a2.411,2.411,0,0,0,.359.027,2.349,2.349,0,0,0,1.4-.465,2.385,2.385,0,0,0,.511-3.31A39.1,39.1,0,0,1,66.1,43.8c1.1,1.084,2.3,2.164,3.564,3.222a56.73,56.73,0,0,0,1.1,7.971C70.636,55.043,70.511,55.1,70.388,55.149ZM73.7,37.25c1.36-1.006,2.733-1.944,4.1-2.806,1.369.862,2.743,1.8,4.1,2.806q1.4,1.039,2.7,2.094.1,1.671.114,3.424c.012,1.187-.006,2.359-.054,3.51q-1.33,1.1-2.76,2.154c-1.36,1.006-2.733,1.944-4.1,2.806-1.369-.862-2.743-1.8-4.1-2.806Q72.3,47.4,71,46.333c-.068-1.121-.109-2.264-.121-3.42-.012-1.19.006-2.366.054-3.519q1.321-1.079,2.759-2.144Zm-2.656.288a53.673,53.673,0,0,1,.812-6.357,51.828,51.828,0,0,1,4.635,2.462c-1.2.774-2.413,1.608-3.614,2.5Q71.933,36.834,71.04,37.538Zm8.069-3.9c1.513-.9,3.013-1.7,4.475-2.386a53.006,53.006,0,0,1,.882,6.211q-.85-.668-1.743-1.329c-1.2-.888-2.41-1.722-3.614-2.5ZM86.1,42.754q-.012-1.115-.054-2.2,1.309,1.131,2.477,2.265-1.154,1.131-2.437,2.253.026-1.149.014-2.318Zm-1.54,5.386a53.673,53.673,0,0,1-.813,6.361,51.871,51.871,0,0,1-4.635-2.462c1.2-.774,2.414-1.607,3.614-2.5Q83.658,48.852,84.556,48.14Zm-8.069,3.9c-1.5.892-2.988,1.686-4.437,2.368a54.118,54.118,0,0,1-.9-6.185q.846.668,1.727,1.32c1.2.889,2.41,1.722,3.614,2.5ZM69.5,42.928q.011,1.1.057,2.181-1.3-1.136-2.479-2.289,1.148-1.115,2.437-2.231-.027,1.159-.015,2.339ZM82.686,58.7c-1.274,3.959-2.973,6.254-4.659,6.254h-.02c-1.68,0-3.416-2.239-4.768-6.155-.324-.94-.618-1.949-.879-3.018A54.434,54.434,0,0,0,77.8,52.859a54.037,54.037,0,0,0,5.656,3.019C83.226,56.872,82.971,57.815,82.686,58.7Zm12.847-2.733a2.794,2.794,0,0,1-1.926.982c-1.944.294-4.927-.344-8.4-1.8l-.169-.072a56.257,56.257,0,0,0,.974-8.125c1.236-1.037,2.4-2.094,3.485-3.155a39.072,39.072,0,0,1,3.189,3.676,2.385,2.385,0,0,0,.511,3.31,2.35,2.35,0,0,0,1.4.464,2.4,2.4,0,0,0,.359-.027l.05-.009C96.046,53.333,96.234,55.01,95.533,55.965Zm-1.075-8.079a1,1,0,0,1,.149-.011.977.977,0,0,1,.583.193,1,1,0,0,1,.21,1.392.984.984,0,0,1-1.38.21,1,1,0,0,1-.21-1.392A.981.981,0,0,1,94.458,47.886Zm-9.25-17.353c3.472-1.453,6.455-2.091,8.4-1.8a2.794,2.794,0,0,1,1.926.982c1,1.364.209,4.1-2.175,7.5a38.651,38.651,0,0,1-3.864,4.617q-1.639-1.592-3.551-3.18a55.841,55.841,0,0,0-1.069-7.983C84.985,30.629,85.1,30.579,85.208,30.533Zm-2.462-5.891h.01a.988.988,0,0,1,.01,1.976h-.01a.988.988,0,1,1-.01-1.976Zm-9.837,2.339c1.274-3.959,2.973-6.24,4.659-6.257,1.177-.013,2.424,1.122,3.533,3.208A2.372,2.372,0,0,0,82.757,28h.005c.183.593.354,1.229.512,1.877a54.409,54.409,0,0,0-5.476,2.94,54.05,54.05,0,0,0-5.655-3.02C72.37,28.806,72.625,27.864,72.909,26.981ZM60.063,29.718a2.793,2.793,0,0,1,1.926-.982c1.944-.294,4.927.344,8.4,1.8l.168.072a56.254,56.254,0,0,0-.973,8.112Q67.716,40.272,66.1,41.84a38.669,38.669,0,0,1-3.863-4.618c-2.385-3.4-3.177-6.14-2.176-7.5Zm.343,18.35a.984.984,0,0,1,1.38.21,1,1,0,0,1-.209,1.392.984.984,0,0,1-1.38-.211h0a1,1,0,0,1,.209-1.392Z" transform="translate(-58.263 -19.341)" fill="#116a9a"/>
</svg>
