<svg id="baseline-help_outline-24px" xmlns="http://www.w3.org/2000/svg" width="32.7" height="32.7" viewBox="0 0 32.7 32.7">
  <path id="Path_278" data-name="Path 278" d="M0,0H32.7V32.7H0Z" fill="none"/>
  <path id="Path_279" data-name="Path 279" d="M14.262,23.8h2.725V21.075H14.262ZM15.625,2A13.625,13.625,0,1,0,29.25,15.625,13.63,13.63,0,0,0,15.625,2Zm0,24.525a10.9,10.9,0,1,1,10.9-10.9A10.914,10.914,0,0,1,15.625,26.525Zm0-19.075a5.448,5.448,0,0,0-5.45,5.45H12.9a2.725,2.725,0,0,1,5.45,0c0,2.725-4.087,2.384-4.087,6.812h2.725c0-3.066,4.087-3.406,4.087-6.812A5.448,5.448,0,0,0,15.625,7.45Z" transform="translate(0.725 0.725)" fill="#116a9a"/>
</svg>
