<svg id="baseline-notifications_none-24px" xmlns="http://www.w3.org/2000/svg" width="77" height="77" viewBox="0 0 77 77">
  <path id="Path_229" data-name="Path 229" d="M0,0H77V77H0Z" fill="none"/>
  <path id="Path_230" data-name="Path 230" d="M29.667,65.062a6.436,6.436,0,0,0,6.417-6.417H23.25A6.436,6.436,0,0,0,29.667,65.062Zm19.25-19.25V29.771c0-9.85-5.23-18.095-14.438-20.277V7.312a4.813,4.813,0,0,0-9.625,0V9.494c-9.176,2.182-14.438,10.395-14.438,20.277V45.812L4,52.229v3.208H55.333V52.229ZM42.5,49.021H16.833V29.771c0-7.957,4.845-14.438,12.833-14.438S42.5,21.814,42.5,29.771Z" transform="translate(8.833 5.521)" fill="#71abcb"/>
</svg>
