<svg id="baseline-person_outline-24px" xmlns="http://www.w3.org/2000/svg" width="77" height="77" viewBox="0 0 77 77">
  <path id="Path_231" data-name="Path 231" d="M29.667,10.1a6.737,6.737,0,1,1-6.738,6.738A6.737,6.737,0,0,1,29.667,10.1m0,28.875c9.529,0,19.571,4.684,19.571,6.738v3.529H10.1V45.708c0-2.053,10.042-6.738,19.571-6.738M29.667,4A12.833,12.833,0,1,0,42.5,16.833,12.83,12.83,0,0,0,29.667,4Zm0,28.875C21.1,32.875,4,37.174,4,45.708v9.625H55.333V45.708C55.333,37.174,38.233,32.875,29.667,32.875Z" transform="translate(8.833 8.833)" fill="#71abcb"/>
  <path id="Path_232" data-name="Path 232" d="M0,0H77V77H0Z" fill="none"/>
</svg>
