<svg xmlns="http://www.w3.org/2000/svg" width="85.278" height="85.481" viewBox="0 0 85.278 85.481">
  <g id="bigfoot" transform="translate(0 -0.019)">
    <g id="Group_271" data-name="Group 271" transform="translate(0 19.359)">
      <path id="Path_650" data-name="Path 650" d="M26.174,250.68H.011c-.006.3-.011.592-.011.888a42.772,42.772,0,0,0,1.5,11.246H8.142a3.034,3.034,0,0,0,3.034-3.033,3.034,3.034,0,0,1,3.034-3.034H26.175a3.034,3.034,0,1,0,0-6.067Zm0,0" transform="translate(0 -228.178)" fill="#bff8ff"/>
      <path id="Path_651" data-name="Path 651" d="M177.668,160.264a3.034,3.034,0,0,1,3.034-3.034h31.672a3.034,3.034,0,0,1,3.034,3.034,3.034,3.034,0,0,0,3.034,3.034h7.515a3.034,3.034,0,0,1,0,6.067h-2.142a3.034,3.034,0,0,0-3.034,3.034,3.034,3.034,0,0,1-3.034,3.034H187.676a3.034,3.034,0,0,1,0-6.068h2.142a3.034,3.034,0,1,0,0-6.067H180.7a3.034,3.034,0,0,1-3.033-3.034Zm0,0" transform="translate(-147.999 -150.333)" fill="#bff8ff"/>
      <path id="Path_652" data-name="Path 652" d="M68.675,122H64.032A3.034,3.034,0,0,1,61,118.964a3.034,3.034,0,0,0-3.034-3.034H25.213A42.64,42.64,0,0,0,21.906,122h4.018a3.034,3.034,0,0,1,3.034,3.034,3.034,3.034,0,0,0,3.033,3.034H68.675a3.034,3.034,0,1,0,0-6.068Zm0,0" transform="translate(-18.248 -115.93)" fill="#bff8ff"/>
      <path id="Path_653" data-name="Path 653" d="M421.949,282.254h-5.712a3.033,3.033,0,0,0-3.033,3.034,3.034,3.034,0,0,1-3.034,3.034H407.2a3.034,3.034,0,1,0,0,6.067h11.664a42.476,42.476,0,0,0,3.087-12.135Zm0,0" transform="translate(-336.672 -254.479)" fill="#bff8ff"/>
    </g>
    <path id="Path_654" data-name="Path 654" d="M361.126,152.251a7.563,7.563,0,1,1-7.563-7.564A7.563,7.563,0,0,1,361.126,152.251Zm0,0" transform="translate(-288.221 -120.525)" fill="#e9ccae"/>
    <path id="Path_655" data-name="Path 655" d="M90.548,152.251a7.563,7.563,0,1,1-7.563-7.564A7.563,7.563,0,0,1,90.548,152.251Zm0,0" transform="translate(-62.827 -120.525)" fill="#ddc1a5"/>
    <path id="Path_656" data-name="Path 656" d="M202.7,238.98h17.8v28.809H202.7Zm0,0" transform="translate(-168.854 -199.072)" fill="#e2e6e7"/>
    <path id="Path_657" data-name="Path 657" d="M109.514,361.973H70.174a14.776,14.776,0,0,0-13.639,9.1,42.745,42.745,0,0,0,66.618,0,14.776,14.776,0,0,0-13.639-9.1Zm0,0" transform="translate(-47.095 -301.526)" fill="#a18838"/>
    <path id="Path_658" data-name="Path 658" d="M152.756,373.446a4.515,4.515,0,0,0,3.112,1.262c2.569,0,4.168-2.658,5.281-5.295a3.476,3.476,0,0,0,2.123.7c2.293,0,3.321-2.568,3.815-3.8a38.353,38.353,0,0,0,1.34-4.163,14.876,14.876,0,0,0-2.288-.177H126.8a14.79,14.79,0,0,0-2.288.177,38.352,38.352,0,0,0,1.341,4.163c.494,1.235,1.522,3.8,3.815,3.8a3.476,3.476,0,0,0,2.123-.7c1.114,2.637,2.712,5.295,5.281,5.295a4.514,4.514,0,0,0,3.112-1.262c1.842,3.324,3.955,5.008,6.286,5.008s4.444-1.684,6.286-5.008Zm0,0" transform="translate(-103.72 -301.526)" fill="#8f701e"/>
    <path id="Path_659" data-name="Path 659" d="M142.519.113A22.749,22.749,0,0,0,119.77,22.863V35.776c0,.677.031,1.346.089,2.008.617,15.7,4.292,28.394,5.858,28.394,1.713,0,2.588-4.688,2.588-4.688s2.365,9.278,4.816,9.278,3.326-4.591,3.326-4.591,2.6,8.338,6.072,8.338,6.072-8.338,6.072-8.338.875,4.591,3.326,4.591,4.816-9.278,4.816-9.278.875,4.688,2.588,4.688c1.566,0,5.241-12.694,5.858-28.394.058-.662.089-1.331.089-2.008V22.863A22.749,22.749,0,0,0,142.519.113Zm0,0" transform="translate(-99.77 -0.094)" fill="#b79d55"/>
    <path id="Path_660" data-name="Path 660" d="M124.824,37.944c-.058-.662-.089-1.332-.089-2.009V23.021A22.752,22.752,0,0,1,145.725.339,22.758,22.758,0,0,0,119.77,22.862V35.776c0,.677.031,1.346.089,2.008.617,15.7,4.292,28.394,5.858,28.394,1.693,0,2.567-4.575,2.588-4.682a102.889,102.889,0,0,1-3.48-23.553Zm0,0" transform="translate(-99.769 -0.094)" fill="#a18838"/>
    <path id="Path_661" data-name="Path 661" d="M185.931,134.717c-1.7,0-2.564-4.643-2.564-4.643s-2.343,9.19-4.77,9.19-3.294-4.547-3.294-4.547-2.579,8.258-6.015,8.258-6.015-8.258-6.015-8.258-.867,4.547-3.294,4.547-4.77-9.19-4.77-9.19-.867,4.643-2.564,4.643c-.212,0-.462-.236-.74-.681V145.2a17.383,17.383,0,0,0,34.765,0V134.036c-.277.445-.528.681-.74.681Zm0,0" transform="translate(-126.539 -108.353)" fill="#f5d7b7"/>
    <path id="Path_662" data-name="Path 662" d="M205.946,237.7a10.065,10.065,0,0,0,10.032-9.258.755.755,0,0,0-.758-.8H196.672a.755.755,0,0,0-.758.8,10.065,10.065,0,0,0,10.032,9.258Zm0,0" transform="translate(-163.197 -189.626)" fill="#3e4852"/>
    <path id="Path_663" data-name="Path 663" d="M280.435,231.8l2.15-4.147-.014-.013h-4.306Zm0,0" transform="translate(-231.798 -189.627)" fill="#fbfcf7"/>
    <path id="Path_664" data-name="Path 664" d="M210.036,231.8l2.15-4.147-.013-.013h-4.307Zm0,0" transform="translate(-173.155 -189.627)" fill="#fbfcf7"/>
    <path id="Path_665" data-name="Path 665" d="M229.888,260.652a9.666,9.666,0,0,0-13.095,0,10.06,10.06,0,0,0,13.095,0Zm0,0" transform="translate(-180.591 -214.997)" fill="#fd6e99"/>
    <path id="Path_666" data-name="Path 666" d="M156.99,145.2v-9.783a44.324,44.324,0,0,1-1.776-5.344s-.868,4.643-2.564,4.643c-.212,0-.463-.236-.74-.681V145.2a17.391,17.391,0,0,0,19.922,17.2,17.386,17.386,0,0,1-14.843-17.2Zm0,0" transform="translate(-126.543 -108.353)" fill="#e9ccae"/>
  </g>
</svg>
