<svg id="bullet-list" xmlns="http://www.w3.org/2000/svg" width="34.5" height="28.75" viewBox="0 0 34.5 28.75">
  <path id="Path_248" data-name="Path 248" d="M0,2.875A2.875,2.875,0,1,0,2.875,0,2.875,2.875,0,0,0,0,2.875Zm0,0" transform="translate(28.75)" fill="#116a9a"/>
  <path id="Path_249" data-name="Path 249" d="M0,173.543a2.875,2.875,0,1,0,2.875-2.875A2.875,2.875,0,0,0,0,173.543Zm0,0" transform="translate(28.75 -159.168)" fill="#116a9a"/>
  <path id="Path_250" data-name="Path 250" d="M0,344.207a2.875,2.875,0,1,0,2.875-2.875A2.875,2.875,0,0,0,0,344.207Zm0,0" transform="translate(28.75 -318.332)" fill="#116a9a"/>
  <path id="Path_251" data-name="Path 251" d="M172.332,24.207H150.77a1.438,1.438,0,0,1,0-2.875h21.562a1.438,1.438,0,1,1,0,2.875Zm0,0" transform="translate(-149.332 -19.895)" fill="#116a9a"/>
  <path id="Path_252" data-name="Path 252" d="M150.77,192h21.562a1.438,1.438,0,1,1,0,2.875H150.77a1.438,1.438,0,0,1,0-2.875Zm0,0" transform="translate(-149.332 -179.063)" fill="#116a9a"/>
  <path id="Path_253" data-name="Path 253" d="M150.77,362.668h21.562a1.437,1.437,0,1,1,0,2.875H150.77a1.437,1.437,0,0,1,0-2.875Zm0,0" transform="translate(-149.332 -338.23)" fill="#116a9a"/>
</svg>
