<svg id="checked" xmlns="http://www.w3.org/2000/svg" width="20" height="20" viewBox="0 0 20 20">
  <circle id="Ellipse_21" data-name="Ellipse 21" cx="10" cy="10" r="10" fill="#32ba7c"/>
  <path id="Path_430" data-name="Path 430" d="M188.8,160.517l5.142,5.142a9.993,9.993,0,0,0,7.413-9.653v-.284L197.317,152Z" transform="translate(-181.355 -146.006)" fill="#0aa06e"/>
  <g id="Group_111" data-name="Group 111" transform="translate(3.36 4.937)">
    <path id="Path_431" data-name="Path 431" d="M92.093,203.969a1.181,1.181,0,0,1,0,1.64l-.915.915a1.181,1.181,0,0,1-1.64,0l-4.006-4.038a1.181,1.181,0,0,1,0-1.64l.915-.915a1.181,1.181,0,0,1,1.64,0Z" transform="translate(-85.2 -196.666)" fill="#fff"/>
    <path id="Path_432" data-name="Path 432" d="M171.671,125.531a1.181,1.181,0,0,1,1.64,0l.915.915a1.181,1.181,0,0,1,0,1.64l-6.94,6.909a1.181,1.181,0,0,1-1.64,0l-.915-.915a1.181,1.181,0,0,1,0-1.64Z" transform="translate(-161.277 -125.2)" fill="#fff"/>
  </g>
</svg>
