<svg id="crown" xmlns="http://www.w3.org/2000/svg" width="39" height="26.176" viewBox="0 0 39 26.176">
  <path id="Path_396" data-name="Path 396" d="M50.4,36.181,47.682,52.266H19.167L16.451,36.181,27.88,42.73l5.545-11.719L38.969,42.73Z" transform="translate(-13.923 -28.485)" fill="#fcd462"/>
  <path id="Path_397" data-name="Path 397" d="M49.5,81.274h-28.4a1.3,1.3,0,0,1-1.3-1.3v-.116a1.3,1.3,0,0,1,1.3-1.3H49.5a1.3,1.3,0,0,1,1.3,1.3v.116A1.3,1.3,0,0,1,49.5,81.274Z" transform="translate(-15.793 -55.098)" fill="#f7be56"/>
  <g id="Group_106" data-name="Group 106" transform="translate(0 0)">
    <path id="Path_398" data-name="Path 398" d="M15.764,39.361a2.481,2.481,0,0,1-.594,1.625,2.526,2.526,0,1,1-3.126-3.852,2.485,2.485,0,0,1,1.193-.3,2.527,2.527,0,0,1,2.527,2.527Z" transform="translate(-10.71 -31.744)" fill="#d6b24e"/>
    <path id="Path_399" data-name="Path 399" d="M54.314,27.8a2.508,2.508,0,0,1-.577,1.607s0,.009-.009.009a2.526,2.526,0,1,1-3.152-3.83.009.009,0,0,1,.009-.009A2.528,2.528,0,0,1,54.314,27.8Z" transform="translate(-32.287 -25.274)" fill="#d6b24e"/>
    <path id="Path_400" data-name="Path 400" d="M92.864,39.361a2.481,2.481,0,0,1-.594,1.625,2.526,2.526,0,1,1-3.126-3.852,2.485,2.485,0,0,1,1.193-.3A2.527,2.527,0,0,1,92.864,39.361Z" transform="translate(-53.864 -31.744)" fill="#d6b24e"/>
  </g>
  <g id="Group_107" data-name="Group 107" transform="translate(0.74)">
    <path id="Path_401" data-name="Path 401" d="M14.178,36.834a2.485,2.485,0,0,0-1.193.3,2.5,2.5,0,0,0-.594,1.625,2.527,2.527,0,0,0,2.527,2.527,2.485,2.485,0,0,0,1.193-.3,2.481,2.481,0,0,0,.594-1.625,2.527,2.527,0,0,0-2.527-2.527Z" transform="translate(-12.39 -31.744)" fill="#f7be56"/>
    <path id="Path_402" data-name="Path 402" d="M52.727,25.274a2.51,2.51,0,0,0-1.2.3.009.009,0,0,0-.009.009,2.527,2.527,0,0,0,3.152,3.83s0,0,.009-.009a2.527,2.527,0,0,0-1.95-4.134Z" transform="translate(-33.967 -25.274)" fill="#f7be56"/>
    <path id="Path_403" data-name="Path 403" d="M91.278,36.834a2.485,2.485,0,0,0-1.193.3,2.5,2.5,0,0,0-.594,1.625,2.527,2.527,0,0,0,2.527,2.527,2.485,2.485,0,0,0,1.193-.3,2.481,2.481,0,0,0,.594-1.625A2.527,2.527,0,0,0,91.278,36.834Z" transform="translate(-55.544 -31.744)" fill="#f7be56"/>
  </g>
  <path id="Path_404" data-name="Path 404" d="M49.577,54.163,50.9,56.835l2.949.428-2.134,2.08.5,2.937-2.637-1.387L46.94,62.28l.5-2.937-2.134-2.08,2.949-.428Z" transform="translate(-30.076 -41.443)" fill="#d6b24e"/>
</svg>
