<svg id="crown" xmlns="http://www.w3.org/2000/svg" width="51.245" height="34.394" viewBox="0 0 51.245 34.394">
  <path id="Path_396" data-name="Path 396" d="M61.056,37.8,57.488,58.94H20.019L16.451,37.8,31.468,46.41l7.286-15.4,7.286,15.4Z" transform="translate(-13.13 -27.692)" fill="#fcd462"/>
  <path id="Path_397" data-name="Path 397" d="M58.824,82.126H21.5a1.708,1.708,0,0,1-1.708-1.708v-.152A1.708,1.708,0,0,1,21.5,78.558H58.824a1.708,1.708,0,0,1,1.708,1.708v.152A1.708,1.708,0,0,1,58.824,82.126Z" transform="translate(-14.538 -47.732)" fill="#f7be56"/>
  <g id="Group_106" data-name="Group 106" transform="translate(0 0)">
    <path id="Path_398" data-name="Path 398" d="M17.351,40.154a3.26,3.26,0,0,1-.781,2.135,3.319,3.319,0,1,1-4.108-5.062,3.266,3.266,0,0,1,1.568-.393,3.321,3.321,0,0,1,3.321,3.321Z" transform="translate(-10.71 -30.146)" fill="#d6b24e"/>
    <path id="Path_399" data-name="Path 399" d="M55.9,28.594a3.3,3.3,0,0,1-.758,2.112c-.006.006-.006.012-.012.012a3.319,3.319,0,1,1-4.142-5.033A.012.012,0,0,1,51,25.673a3.321,3.321,0,0,1,4.9,2.921Z" transform="translate(-26.958 -25.274)" fill="#d6b24e"/>
    <path id="Path_400" data-name="Path 400" d="M94.451,40.154a3.26,3.26,0,0,1-.781,2.135,3.319,3.319,0,1,1-4.107-5.062,3.266,3.266,0,0,1,1.568-.393A3.321,3.321,0,0,1,94.451,40.154Z" transform="translate(-43.206 -30.146)" fill="#d6b24e"/>
  </g>
  <g id="Group_107" data-name="Group 107" transform="translate(0.972 0)">
    <path id="Path_401" data-name="Path 401" d="M14.739,36.834a3.266,3.266,0,0,0-1.568.393,3.283,3.283,0,0,0-.781,2.135,3.321,3.321,0,0,0,3.321,3.321,3.266,3.266,0,0,0,1.568-.393,3.26,3.26,0,0,0,.781-2.135,3.321,3.321,0,0,0-3.321-3.321Z" transform="translate(-12.39 -30.146)" fill="#f7be56"/>
    <path id="Path_402" data-name="Path 402" d="M53.289,25.274a3.3,3.3,0,0,0-1.579.4.012.012,0,0,0-.012.012,3.321,3.321,0,0,0,4.142,5.033c.006,0,.006-.006.012-.012a3.321,3.321,0,0,0-2.563-5.432Z" transform="translate(-28.638 -25.274)" fill="#f7be56"/>
    <path id="Path_403" data-name="Path 403" d="M91.839,36.834a3.266,3.266,0,0,0-1.568.393,3.282,3.282,0,0,0-.781,2.135,3.321,3.321,0,0,0,3.321,3.321,3.266,3.266,0,0,0,1.568-.393,3.26,3.26,0,0,0,.781-2.135A3.321,3.321,0,0,0,91.839,36.834Z" transform="translate(-44.886 -30.146)" fill="#f7be56"/>
  </g>
  <path id="Path_404" data-name="Path 404" d="M50.917,54.163l1.733,3.511,3.875.563-2.8,2.733.662,3.859-3.465-1.822-3.465,1.822.662-3.859-2.8-2.733,3.875-.563Z" transform="translate(-25.293 -37.45)" fill="#d6b24e"/>
</svg>
