<svg id="Group_345" data-name="Group 345" xmlns="http://www.w3.org/2000/svg" width="24.176" height="24.176" viewBox="0 0 24.176 24.176">
  <g id="Group_93" data-name="Group 93" transform="translate(0 0)">
    <path id="Path_325" data-name="Path 325" d="M657.449,91.456a.846.846,0,0,1-.6-.248L645.609,79.966a.846.846,0,0,1,0-1.2l11.242-11.242a.846.846,0,0,1,1.2,0L669.29,78.769a.846.846,0,0,1,0,1.2L658.048,91.208A.846.846,0,0,1,657.449,91.456ZM647.4,79.367l10.045,10.046,10.046-10.046L657.449,69.322Z" transform="translate(-645.361 -67.279)" fill="#fecc00"/>
  </g>
  <g id="Group_94" data-name="Group 94" transform="translate(11.242 0.12)">
    <path id="Path_326" data-name="Path 326" d="M779.079,92.633a.846.846,0,0,1-.846-.846V69.543a.846.846,0,0,1,1.692,0V91.787A.846.846,0,0,1,779.079,92.633Z" transform="translate(-778.233 -68.697)" fill="#fecc00"/>
  </g>
  <g id="Group_95" data-name="Group 95" transform="translate(0.12 11.242)">
    <path id="Path_327" data-name="Path 327" d="M669.869,201.844H647.625a.846.846,0,0,1,0-1.692h22.244a.846.846,0,0,1,0,1.692Z" transform="translate(-646.779 -200.152)" fill="#fecc00"/>
  </g>
</svg>
