<svg id="Group_291" data-name="Group 291" xmlns="http://www.w3.org/2000/svg" width="29" height="29" viewBox="0 0 29 29">
  <g id="Group_98" data-name="Group 98" transform="translate(0)">
    <path id="Path_329" data-name="Path 329" d="M644.861,464.28a1.012,1.012,0,0,1-.718-.3L630.658,450.5a1.015,1.015,0,0,1,0-1.435l13.485-13.485a1.015,1.015,0,0,1,1.435,0l13.485,13.485a1.015,1.015,0,0,1,0,1.435l-13.485,13.485A1.012,1.012,0,0,1,644.861,464.28Zm-12.05-14.5,12.05,12.05,12.05-12.05-12.05-12.05Z" transform="translate(-630.361 -435.28)" fill="#dc3409"/>
  </g>
  <g id="Group_99" data-name="Group 99" transform="translate(13.485 0.144)">
    <path id="Path_330" data-name="Path 330" d="M764.248,465.409a1.015,1.015,0,0,1-1.015-1.015V437.712a1.015,1.015,0,0,1,2.03,0v26.682A1.015,1.015,0,0,1,764.248,465.409Z" transform="translate(-763.233 -436.697)" fill="#dc3409"/>
  </g>
  <g id="Group_100" data-name="Group 100" transform="translate(0.144 8.395)">
    <path id="Path_331" data-name="Path 331" d="M632.792,525.119a1.015,1.015,0,0,1-.362-1.963l13.341-5.09a1.014,1.014,0,0,1,.724,0l13.341,5.09a1.015,1.015,0,0,1-.724,1.9l-12.98-4.952-12.979,4.952A1.013,1.013,0,0,1,632.792,525.119Z" transform="translate(-631.776 -517.999)" fill="#dc3409"/>
  </g>
  <g id="Group_101" data-name="Group 101" transform="translate(0.144 13.469)">
    <path id="Path_332" data-name="Path 332" d="M646.133,575.116a1.012,1.012,0,0,1-.362-.067l-13.341-5.09a1.015,1.015,0,1,1,.724-1.9l12.979,4.952,12.98-4.952a1.015,1.015,0,0,1,.724,1.9l-13.341,5.09A1.013,1.013,0,0,1,646.133,575.116Z" transform="translate(-631.776 -567.996)" fill="#dc3409"/>
  </g>
</svg>
