<svg xmlns="http://www.w3.org/2000/svg" width="36.726" height="35.813" viewBox="0 0 36.726 35.813">
  <path id="facebook" d="M31.779,0H4.951A4.889,4.889,0,0,0,0,4.826V30.987a4.889,4.889,0,0,0,4.949,4.826H18.182l.023-12.8H14.8a.8.8,0,0,1-.8-.781l-.016-4.125a.8.8,0,0,1,.8-.788h3.4V13.335c0-4.626,2.9-7.144,7.129-7.144h3.472a.8.8,0,0,1,.8.785v3.478a.8.8,0,0,1-.8.785H26.653c-2.3,0-2.747,1.066-2.747,2.631v3.451h5.057a.792.792,0,0,1,.8.877l-.5,4.125a.8.8,0,0,1-.8.692H23.929l-.023,12.8h7.873a4.888,4.888,0,0,0,4.949-4.826V4.826A4.889,4.889,0,0,0,31.779,0Z" transform="translate(-0.002)" fill="#a7a7a7"/>
</svg>
