<svg id="flag_1_" data-name="flag (1)" xmlns="http://www.w3.org/2000/svg" width="20.84" height="21.418" viewBox="0 0 20.84 21.418">
  <path id="Path_422" data-name="Path 422" d="M184.629,120.031H176.9l-1.521,6.089a.735.735,0,0,1-.716.557h-1.824l-.325,1.3a.738.738,0,0,0,.716.919h9.555a.738.738,0,0,0,.717-.559l1.846-7.385a.738.738,0,0,0-.717-.918Zm0,0" transform="translate(-164.528 -114.491)" fill="#fbb040"/>
  <path id="Path_423" data-name="Path 423" d="M224.016,144.031h7.016a.369.369,0,0,1,0,.738h-7.016Zm0,0" transform="translate(-213.677 -137.383)" fill="#f1f2f2"/>
  <path id="Path_424" data-name="Path 424" d="M2.229,3.325V2.756a1.477,1.477,0,1,0-1.477,0V21.418H2.229Zm0,0" transform="translate(-0.013 0)" fill="#d80027"/>
  <path id="Path_425" data-name="Path 425" d="M57.778,72.031H48.015v8.862h7.917a.735.735,0,0,0,.716-.557l1.521-6.089.325-1.3a.739.739,0,0,0-.716-.92Zm0,0" transform="translate(-45.799 -68.707)" fill="#f7941d"/>
  <path id="Path_426" data-name="Path 426" d="M48.016,72.031h1.108v8.862H48.016Zm0,0" transform="translate(-45.8 -68.707)" fill="#d88219"/>
  <g id="Group_110" data-name="Group 110" transform="translate(2.216 4.432)">
    <path id="Path_427" data-name="Path 427" d="M224.385,96.77h.369a.369.369,0,0,0,0-.739h-.369a.369.369,0,0,0,0,.739Zm0,0" transform="translate(-215.893 -96.031)" fill="#f1f2f2"/>
    <path id="Path_428" data-name="Path 428" d="M400.754,144.031h-.369a.369.369,0,1,0,0,.738h.369a.369.369,0,1,0,0-.738Zm0,0" transform="translate(-383.769 -141.816)" fill="#f1f2f2"/>
    <path id="Path_429" data-name="Path 429" d="M48.016,96.031h7.016a.369.369,0,0,1,0,.738H48.016Zm0,0" transform="translate(-48.016 -96.031)" fill="#f1f2f2"/>
  </g>
</svg>
