<svg xmlns="http://www.w3.org/2000/svg" width="46.498" height="46.498" viewBox="0 0 46.498 46.498">
  <g id="Group_280" data-name="Group 280" transform="translate(-741.266 -1968)">
    <circle id="Ellipse_23" data-name="Ellipse 23" cx="23.249" cy="23.249" r="23.249" transform="translate(741.266 1968)" fill="#e8f5fc"/>
    <g id="fish_1_" data-name="fish (1)" transform="translate(748.154 1980.055)">
      <path id="Path_47" data-name="Path 47" d="M.863,154.285c-1.318-1.318-1.24-3.533,1.028-5.8A10.061,10.061,0,0,1,8.283,145.8a1,1,0,0,1,1.064,1.063,10.061,10.061,0,0,1-2.682,6.392,8.194,8.194,0,0,1-1.318,1.084.331.331,0,0,0,0,.557,8.2,8.2,0,0,1,1.318,1.084,10.061,10.061,0,0,1,2.682,6.392,1,1,0,0,1-1.063,1.063,10.061,10.061,0,0,1-6.392-2.682c-2.268-2.268-2.346-4.483-1.028-5.8A.473.473,0,0,0,.863,154.285Z" transform="translate(23.659 -142.128)" fill="#fb0"/>
      <path id="Path_48" data-name="Path 48" d="M.863,284.641a.4.4,0,0,0,.085-.218H2.76c-.72,3.384,1.182,6.5,3.395,5.808,1.374-.433,1.5-2.6.732-4.329a10.182,10.182,0,0,1,2.459,6.159,1,1,0,0,1-1.064,1.064,10.06,10.06,0,0,1-6.391-2.682C-.377,288.175-.455,285.96.863,284.641Z" transform="translate(23.66 -271.814)" fill="#f6b90f"/>
      <g id="Group_22" data-name="Group 22" transform="translate(24.297 7.028)">
        <path id="Path_49" data-name="Path 49" d="M51.014,203.466a.482.482,0,0,0,.348-.148l4.487-4.646a.484.484,0,0,0-.7-.672l-4.487,4.646a.484.484,0,0,0,.348.819Z" transform="translate(-50.53 -197.853)" fill="#f6b90f"/>
        <path id="Path_50" data-name="Path 50" d="M55.5,285.925a.484.484,0,0,0,.348-.819l-4.487-4.646a.484.484,0,1,0-.7.672l4.487,4.646A.482.482,0,0,0,55.5,285.925Z" transform="translate(-50.53 -274.996)" fill="#f6b90f"/>
      </g>
      <path id="Path_51" data-name="Path 51" d="M182.749,93.782c.76-2.637,3.074-4.408,6.925-4.8,5.72-.588,11.853.726,7.177,5.239Z" transform="translate(-177.28 -88.846)" fill="#fb0"/>
      <path id="Path_52" data-name="Path 52" d="M245.378,112.9a.484.484,0,1,1,.4.883,3.566,3.566,0,0,0-2.025,2.154.484.484,0,1,1-.916-.31A4.5,4.5,0,0,1,245.378,112.9Zm-7.368,2.946a5.836,5.836,0,0,1,2.07-3.128.484.484,0,0,1,.534.806,5.066,5.066,0,0,0-1.645,2.45.484.484,0,0,1-.479.419.491.491,0,0,1-.065,0A.484.484,0,0,1,238.009,115.849Z" transform="translate(-228.395 -111.106)" fill="#f6b90f"/>
      <path id="Path_53" data-name="Path 53" d="M184.871,92.7c3.083.57,4.684,2.154,1.609,5.122l-3.73-.115C184.718,96.61,185.608,93.652,184.871,92.7Z" transform="translate(-166.908 -92.455)" fill="#f6b90f"/>
      <path id="Path_54" data-name="Path 54" d="M99.989,151.138c0,5.791,5.162,9.06,11.215,9.06,7.709,0,12.933-3.865,15.095-8.025a2.249,2.249,0,0,0,0-2.07c-2.161-4.16-7.386-8.025-15.095-8.025C105.151,142.078,99.989,145.347,99.989,151.138Z" transform="translate(-99.989 -138.646)" fill="#fb6442"/>
      <g id="Group_23" data-name="Group 23" transform="translate(10.173 5.816)">
        <path id="Path_55" data-name="Path 55" d="M265.514,182.448a.484.484,0,0,1,0-.967.728.728,0,1,0,0-1.456.484.484,0,1,1,0-.967,1.694,1.694,0,0,1,1.184,2.907,1.694,1.694,0,0,1-1.184,2.907.484.484,0,0,1,0-.967.728.728,0,1,0,0-1.456Z" transform="translate(-261.461 -179.058)" fill="#fd3c3c"/>
        <path id="Path_56" data-name="Path 56" d="M198.795,220.038a.484.484,0,0,1,0-.967.728.728,0,1,0,0-1.456.484.484,0,0,1,0-.967,1.694,1.694,0,0,1,1.184,2.907,1.694,1.694,0,0,1-1.184,2.907.484.484,0,0,1,0-.967.728.728,0,1,0,0-1.456Z" transform="translate(-190.44 -214.225)" fill="#fd3c3c"/>
        <path id="Path_57" data-name="Path 57" d="M320.889,332.807a1.7,1.7,0,1,0,0-3.39.484.484,0,0,0,0,.967.728.728,0,0,1,0,1.456.484.484,0,0,0,0,.967Z" transform="translate(-320.405 -319.724)" fill="#fd3c3c"/>
      </g>
      <path id="Path_58" data-name="Path 58" d="M113.111,166.949a14.619,14.619,0,0,1,7.127,6.422,2.249,2.249,0,0,1,0,2.07c-2.161,4.16-7.386,8.025-15.095,8.025a14.732,14.732,0,0,1-5.154-.886C117.226,181.806,117.331,172.2,113.111,166.949Z" transform="translate(-93.929 -161.914)" fill="#fd3c3c"/>
      <path id="Path_59" data-name="Path 59" d="M203.923,270.829c-1.191,1.191-2.788,1.549-4.03.308-2.458-2.458-2.624-5.254-1.77-6.108s3.65-.688,6.108,1.77C205.473,268.04,205.114,269.638,203.923,270.829Z" transform="translate(-184.741 -253.233)" fill="#fb0"/>
      <path id="Path_60" data-name="Path 60" d="M202.494,302.489a.484.484,0,0,1,.684,0l2.415,2.415a3.649,3.649,0,0,1-.508.86l-2.591-2.591A.484.484,0,0,1,202.494,302.489Zm-1.466,1.466a.484.484,0,0,1,.684,0l2.591,2.591a3.649,3.649,0,0,1-.86.508l-2.415-2.415A.484.484,0,0,1,201.029,303.955Z" transform="translate(-185.536 -288.583)" fill="#f6b90f"/>
      <g id="Group_24" data-name="Group 24" transform="translate(0.918 11.155)">
        <ellipse id="Ellipse_6" data-name="Ellipse 6" cx="1.419" cy="1.13" rx="1.419" ry="1.13" transform="translate(7.692)" fill="#ff97a3"/>
        <ellipse id="Ellipse_7" data-name="Ellipse 7" cx="1.419" cy="1.13" rx="1.419" ry="1.13" transform="translate(0)" fill="#ff97a3"/>
      </g>
      <g id="Group_25" data-name="Group 25" transform="translate(2.195 7.184)">
        <path id="Path_63" data-name="Path 63" d="M398.769,265.872a2.164,2.164,0,0,0,1.164-.306c.189-.125.166-.315-.05-.424a.81.81,0,0,0-.734.029.769.769,0,0,1-.758,0,.811.811,0,0,0-.734-.029c-.217.109-.239.3-.05.424A2.164,2.164,0,0,0,398.769,265.872Z" transform="translate(-394.873 -260.402)" fill="#464d59"/>
        <circle id="Ellipse_16" data-name="Ellipse 16" cx="1.696" cy="1.696" r="1.696" transform="translate(0 0)" fill="#464d59"/>
        <circle id="Ellipse_17" data-name="Ellipse 17" cx="1.696" cy="1.696" r="1.696" transform="translate(5.189 0)" fill="#464d59"/>
        <circle id="Ellipse_18" data-name="Ellipse 18" cx="0.499" cy="0.499" r="0.499" transform="translate(5.388 1.197)" fill="#fff"/>
        <circle id="Ellipse_19" data-name="Ellipse 19" cx="0.499" cy="0.499" r="0.499" transform="translate(0.2 1.197)" fill="#fff"/>
      </g>
    </g>
  </g>
</svg>
