<svg xmlns="http://www.w3.org/2000/svg" width="26.235" height="34.98" viewBox="0 0 26.235 34.98">
  <g id="Group_297" data-name="Group 297" transform="translate(0)">
    <path id="Path_27" data-name="Path 27" d="M184.777,160.066h-1.458V155.3a8.392,8.392,0,0,0-2.774-6.231l-2.468-2.219a1.821,1.821,0,0,1,0-2.709l2.468-2.221a8.388,8.388,0,0,0,2.774-6.231v-4.77h1.458a1.457,1.457,0,1,0,0-2.914H161.458a1.458,1.458,0,0,0,0,2.916h1.458v4.771a8.391,8.391,0,0,0,2.774,6.23l2.468,2.219a1.821,1.821,0,0,1,0,2.709l-2.468,2.221a8.388,8.388,0,0,0-2.774,6.231v4.77h-1.458a1.456,1.456,0,1,0,0,2.912h23.321a1.457,1.457,0,0,0,0-2.914Zm0,0" transform="translate(-160 -128)" fill="#cfcfcf" opacity="0.3"/>
  </g>
</svg>
