<svg xmlns="http://www.w3.org/2000/svg" width="21.746" height="28.995" viewBox="0 0 21.746 28.995">
  <g id="Group_228" data-name="Group 228" transform="translate(-1287.323 -416)">
    <path id="Path_27" data-name="Path 27" d="M180.538,154.579h-1.209v-3.954a6.956,6.956,0,0,0-2.3-5.165l-2.046-1.839a1.51,1.51,0,0,1,0-2.245l2.046-1.841a6.953,6.953,0,0,0,2.3-5.165v-3.954h1.209a1.208,1.208,0,1,0,0-2.416H161.209a1.209,1.209,0,0,0,0,2.417h1.209v3.954a6.956,6.956,0,0,0,2.3,5.164l2.046,1.84a1.51,1.51,0,0,1,0,2.245l-2.046,1.841a6.953,6.953,0,0,0-2.3,5.165v3.954h-1.209a1.207,1.207,0,1,0,0,2.414h19.331a1.208,1.208,0,0,0,0-2.416Zm0,0" transform="translate(1127.323 288)" fill="#e9e9e9"/>
    <path id="Path_491" data-name="Path 491" d="M213.328,284.616a4.133,4.133,0,0,1,1.217-2.939l4.023-4.023a1.133,1.133,0,0,1,1.6,0l4.023,4.023a4.13,4.13,0,0,1,1.217,2.939v4.789H213.328Zm0,0" transform="translate(1078.672 153.589)" fill="#ffe81a"/>
    <rect id="Rectangle_216" data-name="Rectangle 216" width="4" height="12" transform="translate(1296 429)" fill="#ffe81a"/>
  </g>
</svg>
