<svg id="Group_351" data-name="Group 351" xmlns="http://www.w3.org/2000/svg" width="22.775" height="15.286" viewBox="0 0 22.775 15.286">
  <path id="Path_396" data-name="Path 396" d="M36.275,34.03l-1.586,9.393H18.037L16.451,34.03l6.674,3.824,3.238-6.844L29.6,37.855Z" transform="translate(-14.975 -29.536)" fill="#fcd462"/>
  <path id="Path_397" data-name="Path 397" d="M37.139,80.144H20.551a.759.759,0,0,1-.759-.759v-.068a.759.759,0,0,1,.759-.759H37.139a.759.759,0,0,1,.759.759v.068A.759.759,0,0,1,37.139,80.144Z" transform="translate(-17.457 -64.858)" fill="#f7be56"/>
  <g id="Group_106" data-name="Group 106">
    <path id="Path_398" data-name="Path 398" d="M13.662,38.31a1.449,1.449,0,0,1-.347.949,1.475,1.475,0,1,1-1.826-2.25,1.451,1.451,0,0,1,.7-.175,1.476,1.476,0,0,1,1.476,1.476Z" transform="translate(-10.71 -33.862)" fill="#d6b24e"/>
    <path id="Path_399" data-name="Path 399" d="M52.212,26.75a1.464,1.464,0,0,1-.337.938s0,.005-.005.005a1.475,1.475,0,1,1-1.841-2.237.006.006,0,0,1,.005-.005,1.476,1.476,0,0,1,2.178,1.3Z" transform="translate(-39.348 -25.274)" fill="#d6b24e"/>
    <path id="Path_400" data-name="Path 400" d="M90.762,38.31a1.449,1.449,0,0,1-.347.949,1.475,1.475,0,1,1-1.825-2.25,1.451,1.451,0,0,1,.7-.175A1.476,1.476,0,0,1,90.762,38.31Z" transform="translate(-67.987 -33.862)" fill="#d6b24e"/>
  </g>
  <g id="Group_107" data-name="Group 107" transform="translate(0.432)">
    <path id="Path_401" data-name="Path 401" d="M13.434,36.834a1.451,1.451,0,0,0-.7.175,1.459,1.459,0,0,0-.347.949,1.476,1.476,0,0,0,1.476,1.476,1.451,1.451,0,0,0,.7-.175,1.449,1.449,0,0,0,.347-.949,1.476,1.476,0,0,0-1.476-1.476Z" transform="translate(-12.39 -33.862)" fill="#f7be56"/>
    <path id="Path_402" data-name="Path 402" d="M51.984,25.274a1.466,1.466,0,0,0-.7.177.006.006,0,0,0-.005.005,1.476,1.476,0,0,0,1.841,2.237s0,0,.005-.005a1.476,1.476,0,0,0-1.139-2.414Z" transform="translate(-41.028 -25.274)" fill="#f7be56"/>
    <path id="Path_403" data-name="Path 403" d="M90.534,36.834a.927.927,0,0,0-1.044,1.124,1.476,1.476,0,0,0,1.476,1.476A.927.927,0,0,0,92.01,38.31,1.476,1.476,0,0,0,90.534,36.834Z" transform="translate(-69.667 -33.862)" fill="#f7be56"/>
  </g>
  <path id="Path_404" data-name="Path 404" d="M47.8,54.163l.77,1.56,1.722.25-1.246,1.215.294,1.715-1.54-.81-1.54.81.294-1.715L45.31,55.973l1.722-.25Z" transform="translate(-36.414 -46.735)" fill="#d6b24e"/>
</svg>
