<svg xmlns="http://www.w3.org/2000/svg" width="39.619" height="39.619" viewBox="0 0 39.619 39.619">
  <g id="Group_308" data-name="Group 308" transform="translate(-1434 -527)">
    <circle id="Ellipse_20" data-name="Ellipse 20" cx="19.809" cy="19.809" r="19.809" transform="translate(1434 527)" fill="#e8f5fc"/>
    <g id="fish_1_" data-name="fish (1)" transform="translate(1439.811 537.565)">
      <path id="Path_47" data-name="Path 47" d="M.735,153.03c-1.123-1.123-1.057-3.011.876-4.943A8.573,8.573,0,0,1,7.057,145.8a.851.851,0,0,1,.906.906,8.572,8.572,0,0,1-2.285,5.446,6.984,6.984,0,0,1-1.123.924.282.282,0,0,0,0,.475,6.987,6.987,0,0,1,1.123.924,8.573,8.573,0,0,1,2.285,5.446.85.85,0,0,1-.906.906,8.572,8.572,0,0,1-5.446-2.285c-1.933-1.933-2-3.82-.876-4.943A.4.4,0,0,0,.735,153.03Z" transform="translate(20.159 -142.671)" fill="#fb0"/>
      <path id="Path_48" data-name="Path 48" d="M.735,284.609a.338.338,0,0,0,.073-.186H2.351c-.613,2.884,1.007,5.542,2.892,4.948,1.171-.369,1.277-2.218.624-3.689a8.676,8.676,0,0,1,2.1,5.248.85.85,0,0,1-.906.906,8.572,8.572,0,0,1-5.446-2.285C-.321,287.62-.388,285.732.735,284.609Z" transform="translate(20.159 -273.68)" fill="#f6b90f"/>
      <g id="Group_22" data-name="Group 22" transform="translate(20.702 5.988)">
        <path id="Path_49" data-name="Path 49" d="M50.942,202.636a.411.411,0,0,0,.3-.126l3.823-3.959a.412.412,0,1,0-.593-.572l-3.823,3.959a.412.412,0,0,0,.3.7Z" transform="translate(-50.53 -197.853)" fill="#f6b90f"/>
        <path id="Path_50" data-name="Path 50" d="M54.765,285.094a.412.412,0,0,0,.3-.7l-3.823-3.959a.412.412,0,0,0-.593.572l3.823,3.959A.411.411,0,0,0,54.765,285.094Z" transform="translate(-50.53 -275.782)" fill="#f6b90f"/>
      </g>
      <path id="Path_51" data-name="Path 51" d="M182.749,93.051c.648-2.247,2.619-3.756,5.9-4.093,4.874-.5,10.1.619,6.115,4.464Z" transform="translate(-178.089 -88.846)" fill="#fb0"/>
      <path id="Path_52" data-name="Path 52" d="M244.287,112.863a.412.412,0,1,1,.337.752,3.038,3.038,0,0,0-1.725,1.835.412.412,0,1,1-.78-.264A3.832,3.832,0,0,1,244.287,112.863Zm-6.278,2.51a4.973,4.973,0,0,1,1.764-2.665.412.412,0,0,1,.455.687,4.317,4.317,0,0,0-1.4,2.088.412.412,0,0,1-.408.357.417.417,0,0,1-.055,0A.412.412,0,0,1,238.009,115.374Z" transform="translate(-229.816 -111.333)" fill="#f6b90f"/>
      <path id="Path_53" data-name="Path 53" d="M184.557,92.7c2.627.485,3.991,1.835,1.371,4.364l-3.178-.1C184.426,96.032,185.185,93.511,184.557,92.7Z" transform="translate(-169.252 -92.492)" fill="#f6b90f"/>
      <path id="Path_54" data-name="Path 54" d="M99.989,149.8c0,4.934,4.4,7.72,9.556,7.72,6.569,0,11.02-3.293,12.861-6.838a1.916,1.916,0,0,0,0-1.764c-1.842-3.545-6.293-6.838-12.861-6.838C104.387,142.078,99.989,144.863,99.989,149.8Z" transform="translate(-99.989 -139.154)" fill="#fb6442"/>
      <g id="Group_23" data-name="Group 23" transform="translate(8.668 4.955)">
        <path id="Path_55" data-name="Path 55" d="M265.443,181.947a.412.412,0,0,1,0-.824.62.62,0,1,0,0-1.241.412.412,0,1,1,0-.824,1.443,1.443,0,0,1,1.009,2.477,1.443,1.443,0,0,1-1.009,2.477.412.412,0,1,1,0-.824.62.62,0,1,0,0-1.241Z" transform="translate(-261.989 -179.058)" fill="#fd3c3c"/>
        <path id="Path_56" data-name="Path 56" d="M198.723,219.537a.412.412,0,0,1,0-.824.62.62,0,1,0,0-1.241.412.412,0,1,1,0-.824,151.131,151.131,0,0,0,1.444,3.509,1.446,1.446,0,0,1-1.444,1.444.412.412,0,0,1,0-.824.62.62,0,0,0,0-1.241Z" transform="translate(-191.604 -214.583)" fill="#fd3c3c"/>
        <path id="Path_57" data-name="Path 57" d="M320.817,332.306a1.444,1.444,0,1,0,0-2.889.412.412,0,1,0,0,.824.62.62,0,0,1,0,1.241.412.412,0,1,0,0,.824Z" transform="translate(-320.405 -321.158)" fill="#fd3c3c"/>
      </g>
      <path id="Path_58" data-name="Path 58" d="M111.17,166.949a12.456,12.456,0,0,1,6.073,5.472,1.916,1.916,0,0,1,0,1.764c-1.842,3.545-6.293,6.838-12.861,6.838a12.553,12.553,0,0,1-4.391-.755C114.676,179.608,114.765,171.427,111.17,166.949Z" transform="translate(-94.825 -162.659)" fill="#fd3c3c"/>
      <path id="Path_59" data-name="Path 59" d="M203,269.9c-1.015,1.015-2.376,1.32-3.433.262-2.094-2.094-2.236-4.476-1.508-5.2s3.11-.586,5.2,1.508C204.316,267.526,204.011,268.887,203,269.9Z" transform="translate(-186.652 -254.909)" fill="#fb0"/>
      <path id="Path_60" data-name="Path 60" d="M202.257,302.468a.412.412,0,0,1,.583,0l2.057,2.057a3.109,3.109,0,0,1-.432.733l-2.208-2.208A.412.412,0,0,1,202.257,302.468Zm-1.249,1.249a.412.412,0,0,1,.583,0l2.208,2.208a3.108,3.108,0,0,1-.733.432l-2.057-2.057A.412.412,0,0,1,201.008,303.717Z" transform="translate(-187.807 -290.619)" fill="#f6b90f"/>
      <g id="Group_24" data-name="Group 24" transform="translate(0.782 9.504)">
        <ellipse id="Ellipse_6" data-name="Ellipse 6" cx="1.209" cy="0.963" rx="1.209" ry="0.963" transform="translate(6.554)" fill="#ff97a3"/>
        <ellipse id="Ellipse_7" data-name="Ellipse 7" cx="1.209" cy="0.963" rx="1.209" ry="0.963" transform="translate(0)" fill="#ff97a3"/>
      </g>
      <g id="Group_25" data-name="Group 25" transform="translate(1.87 6.121)">
        <path id="Path_63" data-name="Path 63" d="M398.578,265.754a1.845,1.845,0,0,0,.992-.261c.161-.107.142-.268-.043-.361a.69.69,0,0,0-.626.025.656.656,0,0,1-.646,0,.691.691,0,0,0-.626-.025c-.185.093-.2.254-.043.361A1.844,1.844,0,0,0,398.578,265.754Z" transform="translate(-395.258 -261.093)" fill="#464d59"/>
        <circle id="Ellipse_16" data-name="Ellipse 16" cx="1.445" cy="1.445" r="1.445" transform="translate(0 0)" fill="#464d59"/>
        <circle id="Ellipse_17" data-name="Ellipse 17" cx="1.445" cy="1.445" r="1.445" transform="translate(4.421 0)" fill="#464d59"/>
        <circle id="Ellipse_18" data-name="Ellipse 18" cx="0.425" cy="0.425" r="0.425" transform="translate(4.591 1.02)" fill="#fff"/>
        <circle id="Ellipse_19" data-name="Ellipse 19" cx="0.425" cy="0.425" r="0.425" transform="translate(0.17 1.02)" fill="#fff"/>
      </g>
    </g>
  </g>
</svg>
