<svg xmlns="http://www.w3.org/2000/svg" width="49" height="49" viewBox="0 0 49 49">
  <g id="Group_296" data-name="Group 296" transform="translate(-1434 -527)">
    <circle id="Ellipse_20" data-name="Ellipse 20" cx="24.5" cy="24.5" r="24.5" transform="translate(1434 527)" fill="#e8f5fc"/>
    <g id="fish_1_" data-name="fish (1)" transform="translate(1441.187 540.067)">
      <path id="Path_47" data-name="Path 47" d="M.91,154.742c-1.389-1.389-1.307-3.724,1.083-6.114A10.6,10.6,0,0,1,8.729,145.8a1.052,1.052,0,0,1,1.121,1.121,10.6,10.6,0,0,1-2.826,6.736A8.638,8.638,0,0,1,5.634,154.8a.349.349,0,0,0,0,.587,8.641,8.641,0,0,1,1.389,1.143,10.6,10.6,0,0,1,2.826,6.736,1.052,1.052,0,0,1-1.121,1.12,10.6,10.6,0,0,1-6.736-2.826c-2.39-2.39-2.472-4.725-1.083-6.114A.5.5,0,0,0,.91,154.742Z" transform="translate(24.933 -141.931)" fill="#fb0"/>
      <path id="Path_48" data-name="Path 48" d="M.909,284.653a.418.418,0,0,0,.09-.23H2.908c-.759,3.566,1.246,6.854,3.577,6.12,1.448-.456,1.58-2.743.772-4.562a10.73,10.73,0,0,1,2.592,6.491,1.051,1.051,0,0,1-1.121,1.121,10.6,10.6,0,0,1-6.735-2.826C-.4,288.377-.48,286.042.909,284.653Z" transform="translate(24.933 -271.136)" fill="#f6b90f"/>
      <g id="Group_22" data-name="Group 22" transform="translate(25.605 7.406)">
        <path id="Path_49" data-name="Path 49" d="M51.04,203.768a.508.508,0,0,0,.367-.156l4.728-4.9a.51.51,0,1,0-.733-.708l-4.728,4.9a.51.51,0,0,0,.366.863Z" transform="translate(-50.53 -197.853)" fill="#f6b90f"/>
        <path id="Path_50" data-name="Path 50" d="M55.768,286.227a.51.51,0,0,0,.366-.863l-4.728-4.9a.51.51,0,1,0-.733.708l4.728,4.9A.508.508,0,0,0,55.768,286.227Z" transform="translate(-50.53 -274.71)" fill="#f6b90f"/>
      </g>
      <path id="Path_51" data-name="Path 51" d="M182.749,94.047c.8-2.779,3.239-4.646,7.3-5.063,6.028-.619,12.49.766,7.563,5.521Z" transform="translate(-176.985 -88.846)" fill="#fb0"/>
      <path id="Path_52" data-name="Path 52" d="M245.774,112.916a.51.51,0,1,1,.416.93,3.758,3.758,0,0,0-2.134,2.27.51.51,0,1,1-.965-.327A4.739,4.739,0,0,1,245.774,112.916Zm-7.765,3.1a6.15,6.15,0,0,1,2.181-3.3.51.51,0,0,1,.563.85,5.339,5.339,0,0,0-1.734,2.582.51.51,0,0,1-.5.442.517.517,0,0,1-.068,0A.51.51,0,0,1,238.009,116.021Z" transform="translate(-227.877 -111.024)" fill="#f6b90f"/>
      <path id="Path_53" data-name="Path 53" d="M184.985,92.7c3.249.6,4.936,2.27,1.7,5.4l-3.931-.121C184.824,96.82,185.762,93.7,184.985,92.7Z" transform="translate(-166.056 -92.442)" fill="#f6b90f"/>
      <path id="Path_54" data-name="Path 54" d="M99.989,151.626c0,6.1,5.44,9.548,11.819,9.548,8.124,0,13.629-4.073,15.907-8.457a2.37,2.37,0,0,0,0-2.181c-2.278-4.384-7.783-8.457-15.907-8.457C105.428,142.078,99.989,145.523,99.989,151.626Z" transform="translate(-99.989 -138.461)" fill="#fb6442"/>
      <g id="Group_23" data-name="Group 23" transform="translate(10.721 6.129)">
        <path id="Path_55" data-name="Path 55" d="M265.54,182.631a.51.51,0,1,1,0-1.019.767.767,0,0,0,0-1.535.51.51,0,1,1,0-1.019,1.785,1.785,0,0,1,1.248,3.063,1.785,1.785,0,0,1-1.248,3.063.51.51,0,1,1,0-1.019.767.767,0,1,0,0-1.535Z" transform="translate(-261.269 -179.058)" fill="#fd3c3c"/>
        <path id="Path_56" data-name="Path 56" d="M198.821,220.221a.51.51,0,1,1,0-1.019.767.767,0,1,0,0-1.535.51.51,0,1,1,0-1.019,1.785,1.785,0,0,1,1.248,3.063,1.785,1.785,0,0,1-1.248,3.063.51.51,0,0,1,0-1.019.767.767,0,0,0,0-1.535Z" transform="translate(-190.016 -214.094)" fill="#fd3c3c"/>
        <path id="Path_57" data-name="Path 57" d="M320.915,332.99a1.786,1.786,0,1,0,0-3.573.51.51,0,1,0,0,1.019.767.767,0,0,1,0,1.535.51.51,0,1,0,0,1.019Z" transform="translate(-320.405 -319.202)" fill="#fd3c3c"/>
      </g>
      <path id="Path_58" data-name="Path 58" d="M113.817,166.949a15.405,15.405,0,0,1,7.511,6.768,2.37,2.37,0,0,1,0,2.181c-2.278,4.384-7.783,8.457-15.907,8.457a15.525,15.525,0,0,1-5.431-.934C118.153,182.605,118.264,172.487,113.817,166.949Z" transform="translate(-93.603 -161.643)" fill="#fd3c3c"/>
      <path id="Path_59" data-name="Path 59" d="M204.261,271.166c-1.255,1.255-2.938,1.633-4.246.325-2.59-2.59-2.765-5.536-1.865-6.436s3.846-.725,6.436,1.865C205.893,268.227,205.515,269.911,204.261,271.166Z" transform="translate(-184.046 -252.624)" fill="#fb0"/>
      <path id="Path_60" data-name="Path 60" d="M202.581,302.5a.51.51,0,0,1,.721,0l2.545,2.545a3.846,3.846,0,0,1-.535.906l-2.73-2.73A.51.51,0,0,1,202.581,302.5Zm-1.545,1.545a.51.51,0,0,1,.721,0l2.73,2.73a3.845,3.845,0,0,1-.906.535l-2.545-2.545A.509.509,0,0,1,201.036,304.041Z" transform="translate(-184.709 -287.842)" fill="#f6b90f"/>
      <g id="Group_24" data-name="Group 24" transform="translate(0.967 11.755)">
        <ellipse id="Ellipse_6" data-name="Ellipse 6" cx="1.495" cy="1.191" rx="1.495" ry="1.191" transform="translate(8.106)" fill="#ff97a3"/>
        <ellipse id="Ellipse_7" data-name="Ellipse 7" cx="1.495" cy="1.191" rx="1.495" ry="1.191" transform="translate(0)" fill="#ff97a3"/>
      </g>
      <g id="Group_25" data-name="Group 25" transform="translate(2.313 7.571)">
        <path id="Path_63" data-name="Path 63" d="M398.838,265.916a2.281,2.281,0,0,0,1.227-.322c.2-.132.175-.332-.053-.447a.854.854,0,0,0-.774.031.811.811,0,0,1-.8,0,.854.854,0,0,0-.774-.031c-.228.115-.252.315-.053.447A2.281,2.281,0,0,0,398.838,265.916Z" transform="translate(-394.733 -260.151)" fill="#464d59"/>
        <circle id="Ellipse_16" data-name="Ellipse 16" cx="1.788" cy="1.788" r="1.788" transform="translate(0 0)" fill="#464d59"/>
        <circle id="Ellipse_17" data-name="Ellipse 17" cx="1.788" cy="1.788" r="1.788" transform="translate(5.468 0)" fill="#464d59"/>
        <circle id="Ellipse_18" data-name="Ellipse 18" cx="0.526" cy="0.526" r="0.526" transform="translate(5.678 1.262)" fill="#fff"/>
        <circle id="Ellipse_19" data-name="Ellipse 19" cx="0.526" cy="0.526" r="0.526" transform="translate(0.21 1.262)" fill="#fff"/>
      </g>
    </g>
  </g>
</svg>
