<svg xmlns="http://www.w3.org/2000/svg" width="37.02" height="37.02" viewBox="0 0 37.02 37.02">
  <g id="Group_358" data-name="Group 358" transform="translate(-818.994 -1895)">
    <circle id="Ellipse_22" data-name="Ellipse 22" cx="14.31" cy="14.31" r="14.31" transform="translate(823.773 1899.77)" fill="#15d073"/>
    <g id="baseline-check_circle_outline-24px" transform="translate(818.994 1895)">
      <path id="Path_270" data-name="Path 270" d="M0,0H37.02V37.02H0ZM0,0H37.02V37.02H0Z" fill="none"/>
      <path id="Path_271" data-name="Path 271" d="M24.5,10.607,14.34,20.772,8.8,15.25,6.627,17.425l7.712,7.712L26.68,12.8ZM17.425,2A15.425,15.425,0,1,0,32.85,17.425,15.43,15.43,0,0,0,17.425,2Zm0,27.765a12.34,12.34,0,1,1,12.34-12.34A12.336,12.336,0,0,1,17.425,29.765Z" transform="translate(1.085 1.085)" fill="#fff"/>
    </g>
  </g>
</svg>
