<svg xmlns="http://www.w3.org/2000/svg" width="42" height="42" viewBox="0 0 42 42">
  <g id="Group_348" data-name="Group 348" transform="translate(-1434 -527)">
    <circle id="Ellipse_20" data-name="Ellipse 20" cx="21" cy="21" r="21" transform="translate(1434 527)" fill="#e8f5fc"/>
    <g id="fish_1_" data-name="fish (1)" transform="translate(1440.16 538.2)">
      <path id="Path_47" data-name="Path 47" d="M.78,153.465c-1.191-1.191-1.12-3.192.929-5.24A9.088,9.088,0,0,1,7.482,145.8a.9.9,0,0,1,.961.961,9.088,9.088,0,0,1-2.422,5.774,7.4,7.4,0,0,1-1.191.979.3.3,0,0,0,0,.5A7.407,7.407,0,0,1,6.02,155a9.088,9.088,0,0,1,2.422,5.774.9.9,0,0,1-.961.96,9.088,9.088,0,0,1-5.774-2.422c-2.049-2.049-2.119-4.05-.929-5.24A.427.427,0,0,0,.78,153.465Z" transform="translate(21.371 -142.483)" fill="#fb0"/>
      <path id="Path_48" data-name="Path 48" d="M.779,284.62a.358.358,0,0,0,.077-.2H2.493c-.65,3.057,1.068,5.875,3.066,5.246,1.241-.391,1.354-2.351.661-3.91a9.2,9.2,0,0,1,2.222,5.564.9.9,0,0,1-.961.961,9.087,9.087,0,0,1-5.773-2.422C-.341,287.812-.411,285.811.779,284.62Z" transform="translate(21.371 -273.034)" fill="#f6b90f"/>
      <g id="Group_22" data-name="Group 22" transform="translate(21.947 6.348)">
        <path id="Path_49" data-name="Path 49" d="M50.967,202.923a.435.435,0,0,0,.314-.133l4.053-4.2a.437.437,0,1,0-.628-.607l-4.053,4.2a.437.437,0,0,0,.314.74Z" transform="translate(-50.53 -197.853)" fill="#f6b90f"/>
        <path id="Path_50" data-name="Path 50" d="M55.019,285.382a.437.437,0,0,0,.314-.74l-4.053-4.2a.437.437,0,0,0-.628.607l4.053,4.2A.435.435,0,0,0,55.019,285.382Z" transform="translate(-50.53 -275.51)" fill="#f6b90f"/>
      </g>
      <path id="Path_51" data-name="Path 51" d="M182.749,93.3c.687-2.382,2.777-3.982,6.255-4.339,5.167-.531,10.706.656,6.483,4.732Z" transform="translate(-177.809 -88.846)" fill="#fb0"/>
      <path id="Path_52" data-name="Path 52" d="M244.664,112.877a.437.437,0,1,1,.357.8,3.221,3.221,0,0,0-1.829,1.946.437.437,0,1,1-.827-.28A4.062,4.062,0,0,1,244.664,112.877Zm-6.656,2.661a5.272,5.272,0,0,1,1.87-2.825.437.437,0,0,1,.483.728,4.576,4.576,0,0,0-1.486,2.213.437.437,0,0,1-.432.379.444.444,0,0,1-.059,0A.437.437,0,0,1,238.009,115.538Z" transform="translate(-229.324 -111.255)" fill="#f6b90f"/>
      <path id="Path_53" data-name="Path 53" d="M184.665,92.7c2.785.514,4.231,1.946,1.453,4.627l-3.369-.1C184.527,96.232,185.331,93.56,184.665,92.7Z" transform="translate(-168.441 -92.479)" fill="#f6b90f"/>
      <path id="Path_54" data-name="Path 54" d="M99.989,150.262c0,5.231,4.663,8.184,10.13,8.184,6.963,0,11.682-3.491,13.635-7.249a2.031,2.031,0,0,0,0-1.87c-1.952-3.758-6.671-7.249-13.635-7.249C104.651,142.078,99.989,145.031,99.989,150.262Z" transform="translate(-99.989 -138.978)" fill="#fb6442"/>
      <g id="Group_23" data-name="Group 23" transform="translate(9.189 5.253)">
        <path id="Path_55" data-name="Path 55" d="M265.468,182.12a.437.437,0,1,1,0-.874.658.658,0,0,0,0-1.316.437.437,0,1,1,0-.873,1.53,1.53,0,0,1,1.069,2.626,1.53,1.53,0,0,1-1.069,2.626.437.437,0,1,1,0-.873.658.658,0,1,0,0-1.315Z" transform="translate(-261.806 -179.058)" fill="#fd3c3c"/>
        <path id="Path_56" data-name="Path 56" d="M198.748,219.71a.437.437,0,0,1,0-.873.658.658,0,1,0,0-1.315.437.437,0,1,1,0-.873,160.225,160.225,0,0,0,1.531,3.72,1.533,1.533,0,0,1-1.531,1.531.437.437,0,0,1,0-.874.658.658,0,0,0,0-1.315Z" transform="translate(-191.201 -214.459)" fill="#fd3c3c"/>
        <path id="Path_57" data-name="Path 57" d="M320.842,332.479a1.531,1.531,0,1,0,0-3.062.437.437,0,1,0,0,.873.658.658,0,0,1,0,1.315.437.437,0,1,0,0,.873Z" transform="translate(-320.405 -320.661)" fill="#fd3c3c"/>
      </g>
      <path id="Path_58" data-name="Path 58" d="M111.842,166.949a13.2,13.2,0,0,1,6.438,5.8,2.031,2.031,0,0,1,0,1.87c-1.952,3.758-6.671,7.249-13.634,7.249a13.307,13.307,0,0,1-4.655-.8C115.558,180.369,115.654,171.7,111.842,166.949Z" transform="translate(-94.515 -162.401)" fill="#fd3c3c"/>
      <path id="Path_59" data-name="Path 59" d="M203.317,270.222c-1.076,1.076-2.519,1.4-3.64.278-2.22-2.22-2.37-4.745-1.6-5.517s3.3-.621,5.517,1.6C204.717,267.7,204.393,269.147,203.317,270.222Z" transform="translate(-185.99 -254.329)" fill="#fb0"/>
      <path id="Path_60" data-name="Path 60" d="M202.339,302.475a.437.437,0,0,1,.618,0l2.181,2.181a3.3,3.3,0,0,1-.458.777l-2.34-2.34A.437.437,0,0,1,202.339,302.475Zm-1.324,1.324a.437.437,0,0,1,.618,0l2.34,2.34a3.3,3.3,0,0,1-.777.458l-2.181-2.181A.437.437,0,0,1,201.015,303.8Z" transform="translate(-187.021 -289.915)" fill="#f6b90f"/>
      <g id="Group_24" data-name="Group 24" transform="translate(0.829 10.076)">
        <ellipse id="Ellipse_6" data-name="Ellipse 6" cx="1.282" cy="1.021" rx="1.282" ry="1.021" transform="translate(6.948)" fill="#ff97a3"/>
        <ellipse id="Ellipse_7" data-name="Ellipse 7" cx="1.282" cy="1.021" rx="1.282" ry="1.021" transform="translate(0)" fill="#ff97a3"/>
      </g>
      <g id="Group_25" data-name="Group 25" transform="translate(1.983 6.489)">
        <path id="Path_63" data-name="Path 63" d="M398.644,265.795a1.955,1.955,0,0,0,1.051-.276c.171-.113.15-.284-.046-.383a.732.732,0,0,0-.663.026.7.7,0,0,1-.685,0,.732.732,0,0,0-.663-.026c-.2.1-.216.27-.046.383A1.955,1.955,0,0,0,398.644,265.795Z" transform="translate(-395.125 -260.854)" fill="#464d59"/>
        <circle id="Ellipse_16" data-name="Ellipse 16" cx="1.532" cy="1.532" r="1.532" transform="translate(0 0)" fill="#464d59"/>
        <circle id="Ellipse_17" data-name="Ellipse 17" cx="1.532" cy="1.532" r="1.532" transform="translate(4.687 0)" fill="#464d59"/>
        <circle id="Ellipse_18" data-name="Ellipse 18" cx="0.451" cy="0.451" r="0.451" transform="translate(4.867 1.082)" fill="#fff"/>
        <circle id="Ellipse_19" data-name="Ellipse 19" cx="0.451" cy="0.451" r="0.451" transform="translate(0.18 1.082)" fill="#fff"/>
      </g>
    </g>
  </g>
</svg>
