<svg xmlns="http://www.w3.org/2000/svg" width="80.837" height="87" viewBox="0 0 80.837 87">
  <g id="idea" transform="translate(-18.134)">
    <path id="Path_691" data-name="Path 691" d="M105.425,122.9a24.015,24.015,0,0,1,5.256,6.887h24.831a21.783,21.783,0,0,1,5.256-6.887,26.469,26.469,0,0,0,8.881-24.106A26.971,26.971,0,0,0,96,102.781,27.567,27.567,0,0,0,105.425,122.9Z" transform="translate(-64.635 -62.906)" fill="#e8eae9"/>
    <path id="Path_692" data-name="Path 692" d="M213.333,488.533a8.535,8.535,0,0,0,7.25,3.988,8.775,8.775,0,0,0,7.25-3.988Z" transform="translate(-162.03 -405.521)" fill="#415a6b"/>
    <path id="Path_693" data-name="Path 693" d="M207.413,428.967v-8.7H182.4v8.7a3.828,3.828,0,0,0,3.806,3.806h17.581A3.924,3.924,0,0,0,207.413,428.967Z" transform="translate(-136.354 -348.854)" fill="#344a5e"/>
    <g id="Group_277" data-name="Group 277" transform="translate(42.784 66.338)">
      <path id="Path_694" data-name="Path 694" d="M192.2,390.4H165.737a2.478,2.478,0,0,0-2.537,2.537h0a2.478,2.478,0,0,0,2.537,2.537H192.2a2.478,2.478,0,0,0,2.537-2.537h0A2.592,2.592,0,0,0,192.2,390.4Z" transform="translate(-163.2 -390.4)" fill="#415a6b"/>
      <path id="Path_695" data-name="Path 695" d="M192.2,436.267H165.737A2.478,2.478,0,0,0,163.2,438.8h0a2.478,2.478,0,0,0,2.537,2.537H192.2a2.478,2.478,0,0,0,2.537-2.537h0A2.728,2.728,0,0,0,192.2,436.267Z" transform="translate(-163.2 -428.473)" fill="#415a6b"/>
    </g>
    <path id="Path_696" data-name="Path 696" d="M135.912,138.9a7.368,7.368,0,0,1-4.35-4.35,6.438,6.438,0,0,1-.362-1.813c0-1.994.725-7.794,2.537-10.15a25.053,25.053,0,0,1,12.144-7.613c5.256-1.269,10.331-1.813,17.4,2.356s9.606,13.412,10.331,15.769-.906,8.338-4.35,9.606a9.046,9.046,0,0,1-8.156,5.437s0,1.994-.906,1.631a9.465,9.465,0,0,1-2.356-2.175s-1.813.362-2.719-2.719a16.177,16.177,0,0,0-1.994.362s-3.444,2.719-6.887,1.631c-3.625-1.088-5.619-4.35-5.619-5.256a5.693,5.693,0,0,1,.725-2.175A10.611,10.611,0,0,1,135.912,138.9Z" transform="translate(-93.854 -94.672)" fill="#ffd15c"/>
    <g id="Group_278" data-name="Group 278" transform="translate(38.117 20.481)">
      <path id="Path_697" data-name="Path 697" d="M202.952,260.453a2.232,2.232,0,0,1-1.813-.362,4.187,4.187,0,0,1-1.269-1.269v-.362h0V258.1a8.7,8.7,0,0,1,0-2.175,3.79,3.79,0,0,1,1.269-2.356c.181-.181.181-.362,0-.362-.181-.181-.181-.181-.362,0a4.986,4.986,0,0,0-1.45,2.719v1.813c-.181-.181-.181-.363-.363-.363H197.7a.39.39,0,0,0-.362.362.633.633,0,0,0,.181.362h1.269a2.614,2.614,0,0,0,.362.544.561.561,0,0,1,.181.362,4.071,4.071,0,0,0,1.631,1.813,2.694,2.694,0,0,0,1.631.362h.725c.181,0,.181-.181.181-.362A2.241,2.241,0,0,1,202.952,260.453Z" transform="translate(-186.866 -230.546)" fill="#f3705a"/>
      <path id="Path_698" data-name="Path 698" d="M224.84,190.84c-.906.725-3.081.725-3.625.725a4.607,4.607,0,0,1-.362-1.269c.362,0,.544-.181.906-.362.181-.181.181-.362,0-.362-.181-.181-.181-.181-.362,0s-.544.181-.906.362a17.507,17.507,0,0,1-4.35-.181c0-.362.181-.725.181-1.087h0l.181-.181c.362-.362.544-.725.906-1.087.362-.725.544-1.269.906-1.994.544.544,1.813,1.813,3.081,1.813a5.427,5.427,0,0,1-.725,1.813c-.725-.362-.725-.181-.725,0l.181.181h.181c.725-.544.906-1.813,1.087-2.356.362-.181.544-.362.906-.544.181-.181.362-.544.544-.725.181.362.181.725.362,1.088V188.3a2.3,2.3,0,0,1-.181,1.087,2.5,2.5,0,0,1-.544.725c-.181,0-.181.181-.181.362a.178.178,0,0,0,.181.181h.181a1.856,1.856,0,0,0,.906-1.088,3.083,3.083,0,0,0,.181-1.269V186.49a2.924,2.924,0,0,0-.544-1.631,5.882,5.882,0,0,0,.725-2.356c0-.181-.181-.362-.362-.181-.181,0-.181.181-.181.362a4.563,4.563,0,0,1-.725,1.994h0l-.181.181a3.79,3.79,0,0,1-.725,1.088,1.292,1.292,0,0,1-1.087.544h0c-1.269,0-2.537-1.45-2.9-1.813a26.606,26.606,0,0,0,.362-5.075,8.546,8.546,0,0,0,2.719-1.088c.181,0,.181-.181,0-.362,0-.181-.181-.181-.362,0a6.7,6.7,0,0,1-3.806,1.087,3.654,3.654,0,0,1-1.994-.544,3.708,3.708,0,0,1-1.45-1.45c0-.181-.181-.181-.362-.181s-.181.181-.181.362a7.887,7.887,0,0,0,1.087,1.269h0a11.146,11.146,0,0,1-.181,2.356,7.767,7.767,0,0,1-.906,2.9c-.544.725-1.45,1.269-2.175.906l-.181-.181a1.374,1.374,0,0,0-.725-.362h-.181a.178.178,0,0,1-.181-.181.666.666,0,0,1-.181-.543,5.361,5.361,0,0,1-.362-1.813.39.39,0,0,0-.362-.362c-.181,0-.181.181-.181.362a7.711,7.711,0,0,0,.362,1.994c.181.181.181.544.362.725h0a8.567,8.567,0,0,0-2.175,1.269,3.185,3.185,0,0,0-.725.906,4.236,4.236,0,0,1-1.269,1.269,3.134,3.134,0,0,1-1.813.181h-.181c-.362,0-.725-.181-.906,0a2.689,2.689,0,0,0-2.356,2.356c0,.181,0,.362.181.362h0a.178.178,0,0,0,.181-.181,2.329,2.329,0,0,1,1.813-1.813h1.088a2.567,2.567,0,0,0,1.994-.181,5.514,5.514,0,0,0,1.45-1.45,3.181,3.181,0,0,1,.725-.906,8.571,8.571,0,0,1,2.175-1.269.632.632,0,0,0,.362-.181h0c.181,0,.362.181.544.181s.181.181.362.181c1.088.544,2.175-.181,2.9-1.088a6.11,6.11,0,0,0,.906-3.081,8.822,8.822,0,0,0,.181-2.175h0a4.827,4.827,0,0,0,2.175.544h.906c0,1.813,0,5.075-1.269,7.431-.181.362-.544.725-.725,1.088a3.794,3.794,0,0,1-1.088.725,12.953,12.953,0,0,1-6.163,1.088,2.3,2.3,0,0,1-1.087-.181c-.181,0-.362-.181-.544-.362s-.362-.181-.362-.362a1.99,1.99,0,0,0-2.719.362,3.358,3.358,0,0,0-.362,1.269,4.44,4.44,0,0,0,.725,2.175l.181.181.362.362c0,.181,0,.544-.181.544-.181.181-.362.362-.544.362h-.181a4.544,4.544,0,0,0-1.269.725c-.181.181-.181.362,0,.362l.181.181h.181c.362-.181.725-.544,1.088-.725h.181c.181-.181.544-.181.725-.544a1.121,1.121,0,0,0,.362-1.269.942.942,0,0,0-.362-.725v-.181a3.221,3.221,0,0,1-.725-1.813,1.358,1.358,0,0,1,.181-.906,1.448,1.448,0,0,1,1.994-.362c.181,0,.181.181.362.181.181.181.362.362.544.362a1.97,1.97,0,0,0,.906.181,1.375,1.375,0,0,0,.362.725,1.374,1.374,0,0,1,.362.725v3.262h-.362a1.375,1.375,0,0,0-.725.362l-.181.725a2.924,2.924,0,0,1-1.631.544h-.906a1.809,1.809,0,0,0-.906.725c0,.181,0,.362.181.362h.181c.181,0,.181,0,.181-.181s.362-.362.544-.362h.906a3.22,3.22,0,0,0,1.813-.725l.181-.181a.666.666,0,0,1,.544-.181h2.538a4.5,4.5,0,0,0,1.45-.181c.181,0,.181-.181.362-.181a.561.561,0,0,1,.362-.181,1.633,1.633,0,0,1,.906.181c.181,0,.181.181.362.181a3.532,3.532,0,0,0,1.45.181c.181,0,.181-.181.181-.362s-.181-.181-.362-.181h-1.088c-.181,0-.181,0-.362-.181a1.489,1.489,0,0,0-1.269-.181c-.181,0-.362.181-.544.362-.181,0-.181.181-.362.181a1.155,1.155,0,0,1-1.087,0h-1.813v-3.081a8.835,8.835,0,0,0,1.269.544l1.269.544a2.575,2.575,0,0,0,1.088.362h1.994c.181,0,.362-.181.544-.181h0a14.142,14.142,0,0,1,3.988-.725c.181,0,.181-.181.181-.362a.39.39,0,0,0-.362-.362,14.136,14.136,0,0,0-3.988.725h0c-.181,0-.362.181-.544.181H212.7a2.578,2.578,0,0,1-1.088-.362l-1.269-.544-1.631-.544c0-.181-.181-.362-.181-.544s-.181-.181-.181-.362a11.089,11.089,0,0,0,6.163-1.088c.181-.181.362-.181.544-.362a2.53,2.53,0,0,1-.544,1.631,1.567,1.567,0,0,1-1.087.544h-2.538a.39.39,0,0,0-.362.362.633.633,0,0,0,.181.362h2.719a2.922,2.922,0,0,0,1.269-.725.941.941,0,0,0,.362-.725h0a17.563,17.563,0,0,0,3.081.181H219.4a3.084,3.084,0,0,1,.362,2.537,3.488,3.488,0,0,1-1.269,1.269c-.181,0-.181.181-.181.362a.178.178,0,0,0,.181.181h.181a3.98,3.98,0,0,0,1.631-1.45,1.2,1.2,0,0,0,.181-1.087,8.937,8.937,0,0,0,3.988-.906c.181-.181.181-.362,0-.362C225.022,190.659,224.84,190.659,224.84,190.84Z" transform="translate(-188.636 -167.459)" fill="#f3705a"/>
      <path id="Path_699" data-name="Path 699" d="M352.788,248.236a6.5,6.5,0,0,0-1.994-.725,2.116,2.116,0,0,0-1.813,0c-.181,0-.181.181-.181.362s.181.181.362.181a1.985,1.985,0,0,1,1.45,0,5.426,5.426,0,0,1,1.813.725h.181c.181,0,.181,0,.181-.181C352.969,248.6,352.969,248.417,352.788,248.236Z" transform="translate(-312.595 -225.761)" fill="#f3705a"/>
      <path id="Path_700" data-name="Path 700" d="M319.406,192.947c-.181,0-.362,0-.362.181,0,0-.544,1.269.181,1.994a1.646,1.646,0,0,0,1.269.544c.544,0,.906-.544,1.269-1.087a3.061,3.061,0,0,0,.362-.906,1.987,1.987,0,0,1,.362-.725h.362c.181,0,.181.181.362.362a1.97,1.97,0,0,0,.181.906,7.386,7.386,0,0,0,.362,1.813l.181.181h.181c.181-.181.181-.362,0-.362-.181-.181-.181-1.087-.362-1.631a1.358,1.358,0,0,0-.181-.906,1.541,1.541,0,0,0-.544-.906.823.823,0,0,0-.906,0,1.665,1.665,0,0,0-.725,1.087c-.181.181-.181.544-.362.906a1.489,1.489,0,0,1-.906.906.724.724,0,0,1-.725-.362,1.468,1.468,0,0,1-.181-1.45C319.588,193.31,319.588,193.128,319.406,192.947Z" transform="translate(-287.733 -180.078)" fill="#f3705a"/>
      <path id="Path_701" data-name="Path 701" d="M227.448,180.489a4.235,4.235,0,0,1,1.269-1.269,3.5,3.5,0,0,1,1.813-.544c.181,0,.181-.181.181-.362s-.181-.181-.362-.181a8.83,8.83,0,0,0-1.994.725,4.281,4.281,0,0,0-1.631,1.45,5.763,5.763,0,0,0-.544,1.631,5.922,5.922,0,0,0,0,3.081c0,.181.181.362.181.544s.181.362.181.544c0,.362.181.725,0,1.088,0,.181,0,.362.181.362h.181c.181,0,.181,0,.181-.181a1.985,1.985,0,0,0,0-1.45c0-.181-.181-.362-.181-.544s-.181-.362-.181-.544a5.258,5.258,0,0,1,0-2.9A3.649,3.649,0,0,0,227.448,180.489Z" transform="translate(-210.637 -168.346)" fill="#f3705a"/>
      <path id="Path_702" data-name="Path 702" d="M178.677,127.6a5.428,5.428,0,0,1,2.356-2.175,8.32,8.32,0,0,1,5.256-.906c.181,0,1.088.362,1.088.906a1.848,1.848,0,0,1-.906,1.45c-.181.181-.181.181,0,.362,0,.181.181.181.362.181a3.044,3.044,0,0,1,3.444.725l.181.181h0a.178.178,0,0,0,.181-.181c.181-.725,1.087-1.269,1.813-1.631h.181a4.429,4.429,0,0,0,1.994-1.631.666.666,0,0,0,.181-.544c0-.181.181-.181.181-.362s.181-.362.362-.544a8.044,8.044,0,0,1,1.994,1.45,3.164,3.164,0,0,1,.725,2.175,4.615,4.615,0,0,0-1.269.362c-.544.181-.725.362-1.087.362s-.544.181-.906.362a14.887,14.887,0,0,0-2.9,4.531h0a4.055,4.055,0,0,0-3.262-.362c-.181,0-.181.181-.181.362s.181.181.362.181c1.994-.362,2.9.362,3.081.544,0,1.088.181,2.356,1.269,2.719h0c.181,0,.181,0,.181-.181s0-.362-.181-.362c-1.269-.362-.906-2.537-.906-2.719a13.49,13.49,0,0,1,2.537-4.169c.362-.181.544-.181.725-.362a7.135,7.135,0,0,0,1.088-.362,4.685,4.685,0,0,1,2.537-.362,13.852,13.852,0,0,1,2.9,1.994c.181.362.362.544.362.725a.666.666,0,0,0,.181.544c.181.181.544.181.906.362a9.206,9.206,0,0,1,1.631.362c1.087.362,1.269.906,1.269.906,0,.181.181.181.362.181s.181-.181.181-.362-.181-.725-1.631-1.269a3.585,3.585,0,0,0-1.813-.362c-.181,0-.544,0-.544-.181v-.181a1.411,1.411,0,0,0-.544-1.088,12.818,12.818,0,0,0-3.263-2.175h-1.269a3.483,3.483,0,0,0-.725-2.175,1.233,1.233,0,0,1,1.45-.725c.181,0,.362.181.544.181s.181,0,.362.181a3.088,3.088,0,0,0,1.813,0c.181,0,.181-.181.181-.362s-.181-.181-.362-.181a2.514,2.514,0,0,1-1.631,0c.906-.362.906-.362.725-.362s-.544-.181-.725-.181a1.841,1.841,0,0,0-1.813.906,5.525,5.525,0,0,0-1.813-1.269,3.794,3.794,0,0,1,1.087-.725c.181,0,.181-.181.181-.362s-.181-.181-.362-.181a4.612,4.612,0,0,0-2.175,1.994c0,.181-.181.181-.181.362s-.181.362-.181.544a3.618,3.618,0,0,1-1.813,1.45h-.181a3.967,3.967,0,0,0-1.813,1.631,3.945,3.945,0,0,0-1.45-.906V126.7a2.517,2.517,0,0,1,.362-1.994l.181-.181a3.964,3.964,0,0,0,.544-.906h0s0-.181.544-.362a1.37,1.37,0,0,0,.725-.181h.181c.362,0,.725,0,.906-.362A1,1,0,0,0,193,121.8a1.97,1.97,0,0,0,.181-.906c0-.181,0-.362-.181-.362s-.362,0-.362.181a1.633,1.633,0,0,1-.181.906c0,.181-.181.362-.362.544s-.362.181-.725.181h-.181a1.09,1.09,0,0,0-.725.181c-.181,0-.362.181-.544.181a1,1,0,0,0-.544-.906,4.544,4.544,0,0,0-1.269-.725c-.181,0-.362,0-.362.181s0,.362.181.362c.362.181.906.362,1.087.725.181.181.544.725.362,1.087,0,.181-.181.362-.362.544l-.181.181a2.885,2.885,0,0,0-.544,2.356h-.906a2.619,2.619,0,0,0,.362-1.269,1.967,1.967,0,0,0-1.45-1.45c-1.631-.544-3.444-.181-5.619.906-.906.544-2.175,1.087-2.537,2.356,0,.181,0,.362.181.362C178.5,127.783,178.677,127.783,178.677,127.6Z" transform="translate(-170.928 -120.533)" fill="#f3705a"/>
      <path id="Path_703" data-name="Path 703" d="M187.434,222.292a1.384,1.384,0,0,0,.362-.906l.544-2.356c0-.181,0-.362-.181-.362s-.362,0-.362.181l-.544,2.537a1.825,1.825,0,0,1-.181.544,1.358,1.358,0,0,1-.906.181.632.632,0,0,1-.362-.181c-.181-.181-.544-.181-.906-.362-.181,0-.362,0-.362.181s0,.362.181.362.544.181.725.181.362.181.544.181.362.181.544.181C186.89,222.654,187.253,222.654,187.434,222.292Z" transform="translate(-176.242 -201.992)" fill="#f3705a"/>
      <path id="Path_704" data-name="Path 704" d="M151.562,163.192a8.821,8.821,0,0,1-2.175-.181,2.3,2.3,0,0,1-1.45-1.45v-.181h0c0-.181.181-.362.362-.544.181,0,.181-.181.362-.181.362-.181.362-.362.544-.362a2.5,2.5,0,0,0,.544-.725,6.129,6.129,0,0,1,3.444-2.719h.362c.362-.181.906-.181,1.269-.362a2.424,2.424,0,0,0,1.269-1.45V153.4a3.062,3.062,0,0,1,.544-1.813,3.25,3.25,0,0,1,1.269-.906h.362c.181,0,.181-.181.181-.362s-.181-.181-.362-.181h-.181a.971.971,0,0,1-.725-.544,3.532,3.532,0,0,1-.181-1.45v-2.719a.39.39,0,0,0-.362-.362h0c-.181,0-.181.181-.181.362v2.719a5.016,5.016,0,0,0,.181,1.631c.181.181.181.362.362.544a3.952,3.952,0,0,0-.906.725.561.561,0,0,0-.181.362,3.3,3.3,0,0,1-1.813-1.994,5.256,5.256,0,0,1,0-2.9c0-.181,0-.362-.181-.362a.632.632,0,0,0-.362.181,6.655,6.655,0,0,0,.181,3.262,5.012,5.012,0,0,0,1.994,2.356,2.687,2.687,0,0,0-.181,1.269v.544c0,.362.181.725,0,.906a2.863,2.863,0,0,1-.906,1.087c-.362.181-.725.181-1.087.362h-.362a5.631,5.631,0,0,0-3.625,2.9l-.544.544c-.181.181-.181.181-.362.181s-.181.181-.362.181l-.362.362a1.292,1.292,0,0,0-1.087-.544h0a3.761,3.761,0,0,1-1.813-1.087c-.181-.181-.362-.181-.362,0a.251.251,0,0,0,0,.362,4.135,4.135,0,0,0,2.175,1.087h0a.942.942,0,0,1,.725.362v.544a2.88,2.88,0,0,0,1.813,1.994,5.586,5.586,0,0,0,1.813.181h.725c.181,0,.181-.181.181-.362C151.924,163.373,151.743,163.192,151.562,163.192Z" transform="translate(-143.088 -140.898)" fill="#f3705a"/>
      <path id="Path_705" data-name="Path 705" d="M145.652,206.048l-1.813,1.269c-.181.181-.362.181-.544.362a1.374,1.374,0,0,0-.362.725.178.178,0,0,0,.181.181h0c.181,0,.181-.181.181-.362s0-.181.181-.362l.362-.362,1.812-1.269c.181,0,.181-.181.181-.362C146.014,206.048,145.833,206.048,145.652,206.048Z" transform="translate(-141.71 -191.367)" fill="#f3705a"/>
      <path id="Path_706" data-name="Path 706" d="M138.045,192.4a1.664,1.664,0,0,1,.725-1.088,1.113,1.113,0,0,1,1.087-.181c.181,0,.181.181.362.362l.181.181a1,1,0,0,0,.906.362,1.375,1.375,0,0,0,.725-.362l.181-.181a.178.178,0,0,1,.181-.181,1.368,1.368,0,0,1,1.45-.181,5.424,5.424,0,0,1,1.45.725c.181,0,.362,0,.362-.181s0-.362-.181-.362a6.443,6.443,0,0,0-1.631-.725,1.981,1.981,0,0,0-1.813.362l-.362.362-.181.181a.561.561,0,0,1-.362.181.666.666,0,0,1-.544-.181l-.181-.181c-.181-.181-.362-.362-.544-.362a1.761,1.761,0,0,0-1.631.181,5.5,5.5,0,0,0-.906,1.269c-.181.181-.181.544-.362.544-.181.181-.544,0-.725-.181,0-.181-.181-.181-.362-.181s-.181.181,0,.362a1,1,0,0,0,.906.544.666.666,0,0,0,.544-.181C137.682,192.941,137.864,192.579,138.045,192.4Z" transform="translate(-135.734 -178.622)" fill="#f3705a"/>
      <path id="Path_707" data-name="Path 707" d="M137.963,169.7c.181,0,.181,0,.181-.181.181-.544.725-.725,1.269-.906l.181-.181a5.425,5.425,0,0,0,1.45-.725l.181-.181.181-.181h.181a1.332,1.332,0,0,0,1.631,0c.362-.181.362-.544.544-.906,0-.181.181-.362.181-.544a1.665,1.665,0,0,1,1.088-.725,3.532,3.532,0,0,1,1.45-.181c.181,0,.181-.181.181-.362a.39.39,0,0,0-.362-.362h0a3.532,3.532,0,0,0-1.45.181,4.548,4.548,0,0,0-1.45.906,3.882,3.882,0,0,0-.181,1.087c-.181.181-.181.544-.362.725s-.544.181-1.087-.181c-.181-.181-.544,0-.725.181-.181,0-.181.181-.362.181l-.181.181a2.922,2.922,0,0,1-1.269.725l-.181.181a2.424,2.424,0,0,0-1.45,1.269c0-.182,0,0,.362,0Z" transform="translate(-137.284 -156.836)" fill="#f3705a"/>
      <path id="Path_708" data-name="Path 708" d="M142.229,151.813h.181a2.167,2.167,0,0,0,1.45-.725l.362-.362c.181-.362.544-.544.725-.725.181,0,.181-.181.362-.181a1.809,1.809,0,0,0,.906-.725,1.973,1.973,0,0,0,.181-.906v-.181a3.979,3.979,0,0,1,.906-2.175.251.251,0,0,0,0-.362c-.181-.181-.362-.181-.362,0a6.356,6.356,0,0,0-1.087,2.537v.181a1.09,1.09,0,0,1-.181.725.941.941,0,0,1-.725.362.632.632,0,0,0-.362.181c-.362.181-.544.544-.906.725l-.362.362a1.567,1.567,0,0,1-1.088.544c-.181,0-.362,0-.362.181C142.048,151.631,142.048,151.813,142.229,151.813Z" transform="translate(-140.825 -141.119)" fill="#f3705a"/>
      <path id="Path_709" data-name="Path 709" d="M359.435,210.792h0c-.181-.181-.362-.362-.181-.362a11.432,11.432,0,0,0,.906-3.988,6.307,6.307,0,0,0-1.088-3.806.256.256,0,0,1,.362-.362,6.354,6.354,0,0,1,1.269,4.169,12.368,12.368,0,0,1-.906,4.169C359.616,210.792,359.616,210.792,359.435,210.792Z" transform="translate(-321.055 -188.317)" fill="#f3705a"/>
    </g>
    <path id="Path_710" data-name="Path 710" d="M247.369,1.994V6.525a2.011,2.011,0,0,1-1.994,1.994A2.176,2.176,0,0,1,243.2,6.525V1.994A2.317,2.317,0,0,1,245.375,0,2.011,2.011,0,0,1,247.369,1.994Z" transform="translate(-186.822)" fill="#66c6b9"/>
    <path id="Path_711" data-name="Path 711" d="M134.643,31.477l2.175,3.988a2.322,2.322,0,0,1-.725,2.9,2.222,2.222,0,0,1-2.9-.725l-2.175-3.988a2.114,2.114,0,1,1,3.625-2.175Z" transform="translate(-93.49 -25.314)" fill="#415a6b"/>
    <path id="Path_712" data-name="Path 712" d="M50.718,112.913l3.988,2.356a2.222,2.222,0,0,1,.725,2.9,2.058,2.058,0,0,1-2.9.725l-3.988-2.175a2.2,2.2,0,0,1,2.175-3.806Z" transform="translate(-24.428 -93.519)" fill="#66c6b9"/>
    <path id="Path_713" data-name="Path 713" d="M20.128,226.133h4.531a2.011,2.011,0,0,1,1.994,1.994,2.176,2.176,0,0,1-1.994,2.175H20.128a2.057,2.057,0,0,1-1.994-2.175A2.011,2.011,0,0,1,20.128,226.133Z" transform="translate(0 -187.708)" fill="#415a6b"/>
    <g id="Group_279" data-name="Group 279" transform="translate(23.194 55.347)">
      <path id="Path_714" data-name="Path 714" d="M49.016,328.394,53,326.219a2.322,2.322,0,0,1,2.9.725,2.222,2.222,0,0,1-.725,2.9l-3.988,2.175a2.222,2.222,0,0,1-2.9-.725A1.93,1.93,0,0,1,49.016,328.394Z" transform="translate(-47.914 -325.922)" fill="#66c6b9"/>
      <path id="Path_715" data-name="Path 715" d="M421.6,331.816l-3.988-2.175a2.222,2.222,0,0,1-.725-2.9,2.058,2.058,0,0,1,2.9-.725l3.988,2.175a2.222,2.222,0,0,1,.725,2.9A2.322,2.322,0,0,1,421.6,331.816Z" transform="translate(-353.977 -325.719)" fill="#66c6b9"/>
    </g>
    <path id="Path_716" data-name="Path 716" d="M450.258,230.3h-4.531a2.011,2.011,0,0,1-1.994-1.994,2.176,2.176,0,0,1,1.994-2.175h4.531a2.057,2.057,0,0,1,1.994,2.175A2.011,2.011,0,0,1,450.258,230.3Z" transform="translate(-353.28 -187.709)" fill="#415a6b"/>
    <path id="Path_717" data-name="Path 717" d="M423.591,117.4l-3.806,2.356a2.322,2.322,0,0,1-2.9-.725,2.222,2.222,0,0,1,.725-2.9l3.988-2.175a2.322,2.322,0,0,1,2.9.725A1.957,1.957,0,0,1,423.591,117.4Z" transform="translate(-330.782 -94.377)" fill="#66c6b9"/>
    <path id="Path_718" data-name="Path 718" d="M349.949,33.651l-2.175,3.988a2.222,2.222,0,0,1-2.9.725,2.058,2.058,0,0,1-.725-2.9l2.175-3.988a2.114,2.114,0,1,1,3.625,2.175Z" transform="translate(-270.372 -25.314)" fill="#415a6b"/>
  </g>
</svg>
