<svg xmlns="http://www.w3.org/2000/svg" width="71.995" height="72" viewBox="0 0 71.995 72">
  <g id="mirror" transform="translate(-11.021 -3.933)">
    <path id="Path_686" data-name="Path 686" d="M70.2,59.471a28.39,28.39,0,1,0-46.044-8.606,12.325,12.325,0,0,1-2.637,13.659l-2.437,2.437a21.01,21.01,0,0,1-5.807,3.917,4.013,4.013,0,1,0,4.608,6.434,3.929,3.929,0,0,0,.817-1.189,19.217,19.217,0,0,1,3.982-5.807L24.995,68a12.578,12.578,0,0,1,13.922-2.526A28.388,28.388,0,0,0,70.2,59.471ZM33.674,22.945a23.266,23.266,0,1,1,0,32.9A23.266,23.266,0,0,1,33.674,22.945Z" transform="translate(0 -2.567)" fill="#48578a"/>
    <circle id="Ellipse_62" data-name="Ellipse 62" cx="23.266" cy="23.266" r="23.266" transform="translate(17.218 36.831) rotate(-45)" fill="#36d9f6"/>
    <path id="Path_687" data-name="Path 687" d="M24.114,65.2a12.578,12.578,0,0,1,13.919-2.526A28.385,28.385,0,0,0,76.689,29.35,28.388,28.388,0,1,0,24.17,50.867a12.325,12.325,0,0,1-2.637,13.659L19.1,66.962A21.009,21.009,0,0,1,13.29,70.88a3.971,3.971,0,0,0-2.23,3.336A4.013,4.013,0,0,0,17,74.509a3.928,3.928,0,0,0,.817-1.189A19.218,19.218,0,0,1,21.8,67.51Zm9.574-42.253a23.266,23.266,0,1,1,0,32.9A23.266,23.266,0,0,1,33.688,22.947Z" transform="translate(-0.014 -2.568)" fill="#62739a"/>
    <path id="Path_688" data-name="Path 688" d="M42.7,25.868a23.272,23.272,0,0,0-3.409,28.569A23.263,23.263,0,0,0,75.346,25.626,23.263,23.263,0,0,0,42.7,25.868Z" transform="translate(-9.024 -5.489)" fill="#7be2f6"/>
    <g id="Group_276" data-name="Group 276" transform="translate(27.585 25.216)">
      <path id="Path_689" data-name="Path 689" d="M85.247,52.118l-41.275,16.8a23.521,23.521,0,0,0,1.661,1.847c.361.361.734.7,1.112,1.035L85.276,56.12a23.409,23.409,0,0,0-.029-4Z" transform="translate(-39.544 -42.705)" fill="#e1f4fe"/>
      <path id="Path_690" data-name="Path 690" d="M37.022,54.718a23.125,23.125,0,0,0,2.26,5.639l42.758-17.4a23.118,23.118,0,0,0-2.316-5.616Z" transform="translate(-37.022 -37.342)" fill="#e1f4fe"/>
    </g>
  </g>
</svg>
