<svg id="name" xmlns="http://www.w3.org/2000/svg" width="35.187" height="47.723" viewBox="0 0 35.187 47.723">
  <path id="Path_470" data-name="Path 470" d="M35.187,4.4V43.324a4.4,4.4,0,0,1-4.4,4.4H4.4a4.4,4.4,0,0,1-4.4-4.4V4.4A4.4,4.4,0,0,1,4.4,0h26.39A4.4,4.4,0,0,1,35.187,4.4Zm0,0" transform="translate(0 0)" fill="#e2e2e2"/>
  <path id="Path_474" data-name="Path 474" d="M118.294,39.3h-8.8a1.1,1.1,0,1,1,0-2.2h8.8a1.1,1.1,0,1,1,0,2.2Zm0,0" transform="translate(-96.479 -33.022)" fill="#116a9a"/>
</svg>
