<svg id="pendulum" xmlns="http://www.w3.org/2000/svg" width="36.201" height="30.168" viewBox="0 0 36.201 30.168">
  <g id="Group_66" data-name="Group 66">
    <path id="Path_263" data-name="Path 263" d="M35.447,47.191a.754.754,0,0,0,.754-.754V43.42a.754.754,0,0,0-.754-.754H6.788a.754.754,0,0,0-.754.754v3.017a.754.754,0,0,0,.754.754H8.805L4.057,63.812c-.1-.007-.188-.029-.286-.029a3.822,3.822,0,1,0,1.735.443l4.867-17.035h6.219V65.368a3.771,3.771,0,1,0,1.508,0V47.191h6.034V65.368a3.771,3.771,0,1,0,1.508,0V47.191h6.034V65.368a3.771,3.771,0,1,0,1.508,0V47.191ZM6.034,67.555a2.263,2.263,0,1,1-2.263-2.263A2.265,2.265,0,0,1,6.034,67.555Zm13.576,1.508A2.263,2.263,0,1,1,17.346,66.8,2.265,2.265,0,0,1,19.609,69.063Zm7.542,0A2.263,2.263,0,1,1,24.888,66.8,2.265,2.265,0,0,1,27.151,69.063Zm7.542,0A2.263,2.263,0,1,1,32.43,66.8,2.265,2.265,0,0,1,34.693,69.063ZM7.542,45.683V44.174H34.693v1.508Z" transform="translate(0 -42.666)" fill="#116a9a"/>
  </g>
</svg>
