<svg xmlns="http://www.w3.org/2000/svg" width="24" height="48" viewBox="0 0 24 48">
  <g id="Polygon_4" data-name="Polygon 4" transform="translate(0 48) rotate(-90)" fill="#707070">
    <path d="M 45.58578872680664 23.5 L 2.414218187332153 23.5 C 2.104218006134033 23.5 1.982268095016479 23.26375007629395 1.952278137207031 23.19135093688965 C 1.922288060188293 23.11894035339355 1.841458082199097 22.86565017700195 2.060667991638184 22.64644050598145 L 23.64644813537598 1.060660839080811 C 23.74088859558105 0.9662208557128906 23.86644744873047 0.9142108559608459 24.00000762939453 0.9142108559608459 C 24.13355827331543 0.9142108559608459 24.25911903381348 0.9662208557128906 24.35354804992676 1.060660839080811 L 45.93934631347656 22.64644050598145 C 46.15854644775391 22.86565017700195 46.07771682739258 23.11894035339355 46.0477294921875 23.19135093688965 C 46.01773834228516 23.26375007629395 45.89578628540039 23.5 45.58578872680664 23.5 Z" stroke="none"/>
    <path d="M 23.99999809265137 1.414211273193359 L 24.00000762939453 1.414220809936523 L 2.414218902587891 23 L 45.58577728271484 23 L 24.00095748901367 1.414291381835938 C 24.00086784362793 1.414270401000977 24.00050735473633 1.414211273193359 23.99999809265137 1.414211273193359 M 24.00000381469727 0.4142131805419922 C 24.25592613220215 0.4142131805419922 24.51184844970703 0.5118465423583984 24.70710754394531 0.7071113586425781 L 46.29288864135742 22.29289054870605 C 46.92285919189453 22.92286109924316 46.47668838500977 24 45.58578872680664 24 L 2.414218902587891 24 C 1.523307800292969 24 1.077136993408203 22.92286109924316 1.707107543945313 22.29289054870605 L 23.29289817810059 0.7071113586425781 C 23.48815727233887 0.5118465423583984 23.74408149719238 0.4142131805419922 24.00000381469727 0.4142131805419922 Z" stroke="none" fill="#707070"/>
  </g>
</svg>
