<svg id="ruby" xmlns="http://www.w3.org/2000/svg" width="35.039" height="46" viewBox="0 0 35.039 46">
  <g id="Group_116" data-name="Group 116" transform="translate(0 0)">
    <path id="Path_438" data-name="Path 438" d="M189.43,16.106l6.064-1.079,3.224-3.386a1.335,1.335,0,0,0-.455-.543L182.091.227A1.344,1.344,0,0,0,181.344,0L180,8.177l1.348,3.617,2.808,3.122Zm0,0" transform="translate(-163.824 0)" fill="#ff0059"/>
    <path id="Path_439" data-name="Path 439" d="M9.434,134.035l-3.706-3.774-5.583-.69a1.339,1.339,0,0,0-.145.578v21.562a1.339,1.339,0,0,0,.145.578l6.256-.8,3.032-3.661,1.8-7.344Zm0,0" transform="translate(0 -117.93)" fill="#ff0059"/>
    <path id="Path_440" data-name="Path 440" d="M189.43,332.746l-4.717.854-3.369,3.458L180,342.674l1.348,6.177a1.343,1.343,0,0,0,.748-.226l16.172-10.871a1.332,1.332,0,0,0,.455-.543l-3.9-3.723Zm0,0" transform="translate(-163.824 -302.851)" fill="#ff0059"/>
  </g>
  <path id="Path_441" data-name="Path 441" d="M18.987,11.793V0a1.343,1.343,0,0,0-.747.227L2.068,11.1a1.335,1.335,0,0,0-.455.543L10.9,16.106Zm0,0" transform="translate(-1.468)" fill="#ff5e95"/>
  <path id="Path_442" data-name="Path 442" d="M285,147.824l9.289,4.464a1.339,1.339,0,0,0,.145-.578V130.148a1.338,1.338,0,0,0-.145-.578L285,134.035Zm0,0" transform="translate(-259.391 -117.929)" fill="#e50048"/>
  <path id="Path_443" data-name="Path 443" d="M10.9,332.746,1.613,337.21a1.334,1.334,0,0,0,.455.543L18.24,348.624a1.343,1.343,0,0,0,.747.226V337.058Zm0,0" transform="translate(-1.468 -302.851)" fill="#ff5e95"/>
  <path id="Path_444" data-name="Path 444" d="M121.171,135.516v13.8l-8.086,4.313L105,149.315v-13.8l8.086-4.312Zm0,0" transform="translate(-95.566 -119.415)" fill="#ffa2c3"/>
  <path id="Path_445" data-name="Path 445" d="M203.082,135.516v13.8L195,153.628V131.2Zm0,0" transform="translate(-177.477 -119.415)" fill="#ff5e95"/>
</svg>
