<svg id="ruler" xmlns="http://www.w3.org/2000/svg" width="36.701" height="36.701" viewBox="0 0 36.701 36.701">
  <path id="Path_257" data-name="Path 257" d="M89.972,60.861a2.938,2.938,0,0,0-4.155,0L60.861,85.817a2.938,2.938,0,0,0,0,4.155l5.868,5.869a2.938,2.938,0,0,0,4.155,0L95.841,70.884a2.938,2.938,0,0,0,0-4.155Zm5.074,9.229L70.09,95.046a1.815,1.815,0,0,1-2.566,0l-5.868-5.869a1.815,1.815,0,0,1,0-2.566l5.519-5.519,3.833,3.833a.562.562,0,1,0,.794-.794L67.968,80.3l4.887-4.887,2.809,2.809a.562.562,0,1,0,.794-.794L73.65,74.616l4.887-4.887,3.833,3.833a.562.562,0,1,0,.794-.794l-3.833-3.833,4.887-4.887,2.809,2.809a.562.562,0,1,0,.794-.794l-2.809-2.809,1.6-1.6a1.815,1.815,0,0,1,2.566,0l5.868,5.869a1.815,1.815,0,0,1,0,2.566Z" transform="translate(-60 -60)" fill="#116a9a"/>
  <path id="Path_258" data-name="Path 258" d="M122.236,364.067a.562.562,0,0,0-.794.794l1.388,1.388a.562.562,0,1,0,.794-.794Z" transform="translate(-115.54 -335.449)" fill="#116a9a"/>
</svg>
