<svg xmlns="http://www.w3.org/2000/svg" width="26.235" height="34.98" viewBox="0 0 26.235 34.98">
  <g id="Group_223" data-name="Group 223" transform="translate(0)" opacity="0.3">
    <path id="Path_27" data-name="Path 27" d="M184.777,160.066h-1.458V155.3a8.392,8.392,0,0,0-2.774-6.231l-2.468-2.219a1.821,1.821,0,0,1,0-2.709l2.468-2.221a8.388,8.388,0,0,0,2.774-6.231v-4.77h1.458a1.457,1.457,0,1,0,0-2.914H161.458a1.458,1.458,0,0,0,0,2.916h1.458v4.771a8.391,8.391,0,0,0,2.774,6.23l2.468,2.219a1.821,1.821,0,0,1,0,2.709l-2.468,2.221a8.388,8.388,0,0,0-2.774,6.231v4.77h-1.458a1.456,1.456,0,1,0,0,2.912h23.321a1.457,1.457,0,0,0,0-2.914Zm0,0" transform="translate(-160 -128)" fill="#e9e9e9"/>
    <path id="Path_489" data-name="Path 489" d="M213.328,286.122a4.987,4.987,0,0,1,1.468-3.545l4.854-4.854a1.367,1.367,0,0,1,1.932,0l4.854,4.854a4.982,4.982,0,0,1,1.468,3.545V291.9H213.328Zm0,0" transform="translate(-207.686 -259.332)" fill="#08cf6c"/>
    <rect id="Rectangle_215" data-name="Rectangle 215" width="4.826" height="14.477" transform="translate(10.468 14.477)" fill="#08cf6c"/>
    <path id="Path_490" data-name="Path 490" d="M225.244,280.232a2.177,2.177,0,0,1-1.2,1.785l-3.968,2.443a1.651,1.651,0,0,1-1.58,0l-3.968-2.443a2.175,2.175,0,0,1-1.2-1.785v-2.909h11.916Zm0,0" transform="translate(-206.479 -267.777)" fill="#08cf6c"/>
  </g>
</svg>
