<svg id="twitter-logo-silhouette" xmlns="http://www.w3.org/2000/svg" width="42.779" height="34.749" viewBox="0 0 42.779 34.749">
  <g id="Group_167" data-name="Group 167" transform="translate(0 0)">
    <path id="Path_62" data-name="Path 62" d="M42.78,61.552a17.525,17.525,0,0,1-5.039,1.382A8.812,8.812,0,0,0,41.6,58.083a17.692,17.692,0,0,1-5.576,2.131,8.782,8.782,0,0,0-14.954,8A24.915,24.915,0,0,1,2.982,59.045,8.786,8.786,0,0,0,5.7,70.759a8.776,8.776,0,0,1-3.975-1.1v.11a8.784,8.784,0,0,0,7.038,8.605,8.89,8.89,0,0,1-2.312.307A8.424,8.424,0,0,1,4.8,78.516a8.78,8.78,0,0,0,8.2,6.095,17.607,17.607,0,0,1-10.9,3.751A18.651,18.651,0,0,1,0,88.241,24.806,24.806,0,0,0,13.452,92.19C29.6,92.19,38.42,78.818,38.42,67.222l-.029-1.136A17.524,17.524,0,0,0,42.78,61.552Z" transform="translate(-0.001 -57.441)" fill="#a7a7a7"/>
  </g>
</svg>
